<svg width="24" height="24" fill="none" xmlns="http://www.w3.org/2000/svg"><path d="M21.192 23.015c-1.117-2.321-3.128-4.144-5.566-5.063v-1.468c1.198-.066 3.458-.37 4.784-1.727a.683.683 0 00-.305-1.138c-.02-.004-1.767-.603-1.417-4.178.152-1.524.127-2.895-.071-4.073-.229-1.351-.686-2.412-1.35-3.154-.722-.797-1.661-1.203-2.794-1.203h-.132C13.91.635 12.965 0 11.518 0c-.676 0-1.382.137-2.103.416l-.03.01c-.57.214-1.625.615-2.52 1.803-1.04 1.382-1.538 3.428-1.477 6.08.061 2.655-.376 3.955-.752 4.58-.31.513-.604.614-.68.635-.259-.02-.467.111-.6.335-.136.228-.086.518.067.741.06.091.416.569 1.274 1.031.98.528 2.204.828 3.652.889v1.396a10.208 10.208 0 00-5.54 5.104.693.693 0 00.035.66.69.69 0 00.579.32h17.154a.684.684 0 00.58-.32.703.703 0 00.035-.665zM4.59 22.624a8.791 8.791 0 014.646-3.575.686.686 0 00.478-.65v-2.555a.676.676 0 00-.203-.487.68.68 0 00-.488-.198c-1.975.02-3.169-.432-3.819-.818.046-.046.097-.091.148-.142 1-1.041 1.472-3.032 1.406-5.921C6.627 2.94 8.897 2.077 9.862 1.71l.03-.01c.57-.213 1.113-.325 1.615-.325 1.31 0 1.981.721 2.037.787.142.178.36.264.589.244.112-.01.223-.015.33-.015.736 0 1.32.244 1.777.751.965 1.067 1.361 3.317 1.077 6.17-.284 2.88.614 4.322 1.391 5.023-1.046.579-2.534.797-3.656.797h-.101a.683.683 0 00-.706.686v2.625c0 .3.193.559.477.65a8.874 8.874 0 014.672 3.54H4.591v-.01z" fill="#131429"/></svg>