<svg width="24" height="24" fill="none" xmlns="http://www.w3.org/2000/svg"><path fill-rule="evenodd" clip-rule="evenodd" d="M19.79 19.222L3.21 5.992l.935-1.173 16.581 13.23-.935 1.173z" fill="#131429"/><path d="M18.79 14.873c1.388-1.138 2.167-2.258 2.268-2.403a.817.817 0 000-.919c-.213-.308-3.443-4.951-9.053-4.951a9.943 9.943 0 00-3.004.463l1.58 1.26a8.276 8.276 0 011.424-.123c3.86 0 6.5 2.72 7.4 3.8a11.572 11.572 0 01-1.914 1.837l1.298 1.036zm-1.264.911l-1.36-1.085c-1.148.63-2.548 1.101-4.16 1.101-3.86 0-6.5-2.72-7.4-3.8.624-.764 2.079-2.3 4.209-3.167L7.41 7.713C4.651 9.106 3.098 11.34 2.952 11.55l-.007.01c-.18.26-.18.62 0 .9.027.027.078.091.152.184.755.942 3.931 4.907 8.908 4.776 2.23 0 4.083-.733 5.52-1.636z" fill="#131429"/><path d="M9.746 9.576a3.316 3.316 0 00-.4 4.424c.54.72 1.3 1.16 2.18 1.3.16.02.32.04.46.04.72 0 1.4-.24 1.98-.66.377-.284.677-.635.895-1.023l-.947-.755c-.142.306-.36.582-.649.798-.44.34-1 .48-1.56.4a2.16 2.16 0 01-1.4-.82 2.134 2.134 0 01.384-2.952l-.943-.752zm4.055 1.317a2.152 2.152 0 00-.116-.173 2.171 2.171 0 00-1.01-.726l-1.505-1.2a3.33 3.33 0 011.295-.074c.88.12 1.66.58 2.16 1.32.46.61.675 1.33.663 2.04l-1.487-1.187z" fill="#131429"/><path d="M11.833 11.242a.79.79 0 00.232.678c.14.16.34.24.56.24a.76.76 0 00.284-.06l-1.076-.858z" fill="#131429"/></svg>