<svg width="24" height="24" fill="none" xmlns="http://www.w3.org/2000/svg"><path d="M21.065 11.56c-.14-.2-3.38-4.96-9.06-4.96-5.68 0-8.92 4.76-9.06 4.96-.18.26-.18.62 0 .9.14.2 3.38 4.96 9.06 4.96 5.68 0 8.92-4.76 9.06-4.96.18-.28.18-.64 0-.9zm-9.06 4.24c-3.86 0-6.5-2.72-7.4-3.8.9-1.1 3.52-3.8 7.4-3.8 3.86 0 6.5 2.72 7.4 3.8-.9 1.1-3.54 3.8-7.4 3.8zm.46-7.08a3.3 3.3 0 00-2.46.64 3.317 3.317 0 00-.66 4.64c.54.72 1.3 1.16 2.18 1.3.16.02.32.04.46.04.72 0 1.4-.24 1.98-.66 1.46-1.1 1.76-3.18.66-4.64-.5-.74-1.28-1.2-2.16-1.32zm.8 4.98c-.44.34-1 .48-1.56.4a2.16 2.16 0 01-1.4-.82c-.7-.94-.52-2.26.42-2.98.44-.34 1-.48 1.56-.4.56.08 1.06.38 1.4.82.7.94.52 2.28-.42 2.98zm-.08-2.9c.16.14.24.36.24.56 0 .2-.08.42-.24.56a.84.84 0 01-.56.24c-.22 0-.42-.08-.56-.24a.79.79 0 01-.24-.56c0-.22.08-.42.24-.56.14-.16.36-.24.56-.24.22.02.42.1.56.24z" fill="#131429"/></svg>