<svg width="24" height="24" fill="none" xmlns="http://www.w3.org/2000/svg"><path d="M10.89 21.777c.298.293.699.456 1.12.456.416 0 .827-.168 1.12-.456l8.795-8.625A6.846 6.846 0 0024 8.25a6.824 6.824 0 00-2.07-4.906 7.085 7.085 0 00-4.997-2.03 7.09 7.09 0 00-4.928 1.963 7.113 7.113 0 00-4.943-1.972A7.1 7.1 0 002.07 3.33 6.824 6.824 0 000 8.237c0 1.848.739 3.59 2.075 4.9l8.814 8.64zM2.921 4.167a5.885 5.885 0 014.145-1.685c1.566 0 3.044.6 4.155 1.689l.362.355a.615.615 0 00.852 0l.352-.345a5.893 5.893 0 014.155-1.69c1.566 0 3.04.6 4.145 1.685a5.66 5.66 0 011.718 4.07c0 1.536-.612 2.98-1.723 4.07l-8.8 8.63a.412.412 0 01-.547 0l-8.81-8.64a5.664 5.664 0 01-1.722-4.07c0-1.535.612-2.98 1.718-4.07z" fill="#131429"/></svg>