<svg width="25" height="24" fill="none" xmlns="http://www.w3.org/2000/svg"><g clip-path="url(#clip0)"><path d="M23.048 16.316c.492-.627.728-1.3.697-1.992-.03-.763-.37-1.36-.652-1.727.326-.813.452-2.093-.637-3.086-.798-.728-2.154-1.054-4.03-.964-1.32.06-2.425.306-2.47.316h-.005c-.25.045-.517.1-.788.16-.02-.32.035-1.118.628-2.915.702-2.138.662-3.774-.13-4.868C14.826.09 13.496 0 13.104 0a1.26 1.26 0 00-.968.442c-.557.647-.492 1.842-.422 2.394-.662 1.776-2.52 6.133-4.09 7.342a.535.535 0 00-.08.07 5.392 5.392 0 00-.984 1.476 2.071 2.071 0 00-.994-.251h-3.06a2.09 2.09 0 00-2.088 2.088v8.155a2.09 2.09 0 002.088 2.088h3.061c.447 0 .864-.14 1.205-.381l1.18.14c.18.026 3.392.432 6.69.367.597.045 1.159.07 1.68.07.899 0 1.682-.07 2.334-.21 1.536-.327 2.585-.98 3.117-1.938.407-.733.407-1.46.341-1.922 1-.904 1.175-1.902 1.14-2.605a3.389 3.389 0 00-.206-1.009zM2.506 22.45a.734.734 0 01-.733-.733v-8.16c0-.407.331-.733.733-.733h3.061c.407 0 .733.331.733.733v8.155a.734.734 0 01-.733.733H2.506v.005zm19.257-6.72a.675.675 0 00-.09.818c0 .005.205.356.23.838.036.658-.28 1.24-.943 1.737a.684.684 0 00-.23.773c0 .005.215.667-.136 1.294-.337.603-1.084 1.034-2.219 1.275-.908.196-2.143.231-3.658.11h-.07c-3.228.07-6.49-.35-6.525-.356h-.005l-.507-.06c.03-.14.045-.291.045-.442v-8.16c0-.216-.035-.427-.095-.622.09-.337.341-1.085.933-1.722 2.254-1.787 4.457-7.814 4.552-8.075a.64.64 0 00.03-.337c-.085-.562-.055-1.25.066-1.455.266.005.983.08 1.415.678.512.707.492 1.972-.06 3.648-.843 2.555-.914 3.9-.246 4.492.331.296.773.311 1.094.196.306-.07.597-.13.873-.176l.066-.015c1.54-.336 4.3-.542 5.26.331.812.743.235 1.727.17 1.832a.671.671 0 00.12.873c.005.005.532.502.557 1.17.02.447-.19.903-.627 1.355z" fill="#131429"/></g><defs><clipPath id="clip0"><path d="M.083 0h24v24h-24V0z" fill="#fff"/></clipPath></defs></svg>