<svg width="25" height="24" fill="none" xmlns="http://www.w3.org/2000/svg"><g clip-path="url(#clip0)" fill="#131429"><path d="M12.078 0c-5.303 0-9.62 4.232-9.62 9.431a9.107 9.107 0 00.236 2.087c.146.636.363 1.263.645 1.86 1.036 2.392 3.315 6.067 8.317 10.003a.691.691 0 00.855 0c4.996-3.936 7.28-7.61 8.317-10.003a9.058 9.058 0 00.71-2.176 9.57 9.57 0 00.17-1.77C21.698 4.232 17.381 0 12.078 0zm8.11 10.97c0 .01-.004.02-.004.03a7.6 7.6 0 01-.046.212v.01a7.725 7.725 0 01-.558 1.608c-.005.005-.005.015-.01.02-.94 2.185-3.004 5.52-7.492 9.155-4.488-3.635-6.55-6.97-7.492-9.155-.005-.005-.005-.015-.01-.02a8.24 8.24 0 01-.558-1.608v-.01c-.03-.113-.04-.187-.046-.212 0-.01-.005-.02-.005-.034a7.903 7.903 0 01-.15-1.54c0-4.464 3.708-8.1 8.261-8.1 4.554 0 8.262 3.636 8.262 8.1 0 .523-.05 1.041-.151 1.544z"/><path d="M12.078 3.547c-3.366 0-6.108 2.688-6.108 5.988 0 3.3 2.742 5.989 6.108 5.989 3.366 0 6.108-2.689 6.108-5.989s-2.742-5.988-6.108-5.988zm0 10.645c-2.621 0-4.75-2.092-4.75-4.657s2.134-4.656 4.75-4.656 4.75 2.091 4.75 4.656c0 2.565-2.129 4.657-4.75 4.657z"/></g><defs><clipPath id="clip0"><path d="M.083 0h24v23.53h-24V0z" fill="#fff"/></clipPath></defs></svg>