<svg width="25" height="24" fill="none" xmlns="http://www.w3.org/2000/svg"><path d="M3.205 12.682v9.56c0 .967.79 1.758 1.757 1.758H20.96c.967 0 1.758-.79 1.758-1.758v-9.56c0-.967-.79-1.757-1.758-1.757h-1.237V6.76C19.722 3.034 16.687 0 12.96 0 9.234 0 6.2 3.034 6.2 6.761a.603.603 0 101.208 0 5.566 5.566 0 015.558-5.558 5.566 5.566 0 015.558 5.558v4.164H4.962a1.765 1.765 0 00-1.757 1.757zm18.309 0v9.56c0 .305-.25.555-.555.555H4.962a.557.557 0 01-.554-.555v-9.56c0-.304.25-.554.554-.554H20.96a.56.56 0 01.555.554z" fill="#131429"/><path d="M12.96 19.91c1.351 0 2.45-1.1 2.45-2.45s-1.099-2.45-2.45-2.45a2.45 2.45 0 000 4.9zm0-3.692a1.245 1.245 0 110 2.49 1.245 1.245 0 110-2.49z" fill="#131429"/></svg>