<svg width="24" height="25" fill="none" xmlns="http://www.w3.org/2000/svg"><g clip-path="url(#clip0)"><path d="M23.794.213a.682.682 0 00-.762-.146L.416 10.181c-.24.11-.4.345-.415.61a.704.704 0 00.348.648l7.885 4.564 4.682 8.13a.696.696 0 00.594.349h.04a.693.693 0 00.594-.423L23.943.991a.707.707 0 00-.149-.778zm-3.597 2.658L8.623 14.603l-6.39-3.696L20.196 2.87zm-6.78 19.35l-3.812-6.626 11.641-11.8-7.828 18.426z" fill="#131429"/></g><defs><clipPath id="clip0"><path d="M0 0h24v24.49H0V0z" fill="#fff"/></clipPath></defs></svg>