<svg width="25" height="24" fill="none" xmlns="http://www.w3.org/2000/svg"><g clip-path="url(#clip0)" fill="#131429"><path d="M19.05 14.867c-.49-.512-1.083-.785-1.711-.785-.623 0-1.221.268-1.733.78l-1.6 1.596c-.132-.071-.264-.137-.39-.203a6.43 6.43 0 01-.502-.268c-1.5-.953-2.862-2.194-4.169-3.8-.633-.8-1.058-1.473-1.367-2.157.415-.38.8-.775 1.175-1.155.142-.142.283-.289.425-.43 1.064-1.064 1.064-2.442 0-3.506L7.795 3.556a19.364 19.364 0 01-.47-.481 23.922 23.922 0 00-.953-.942c-.491-.486-1.079-.745-1.697-.745-.618 0-1.216.259-1.722.745l-.01.01L1.22 3.88a3.706 3.706 0 00-1.1 2.356C0 7.715.435 9.093.77 9.994c.82 2.214 2.046 4.265 3.875 6.464 2.218 2.649 4.888 4.74 7.937 6.215 1.165.552 2.72 1.205 4.458 1.317.106.005.218.01.319.01 1.17 0 2.153-.42 2.923-1.256.005-.01.015-.015.02-.026.263-.319.567-.607.886-.916.218-.208.441-.426.659-.654.501-.522.765-1.13.765-1.752 0-.629-.269-1.231-.78-1.738l-2.781-2.79zm1.814 5.334c-.005 0-.005.005 0 0-.198.213-.4.405-.618.618-.33.314-.663.643-.977 1.013-.512.547-1.115.805-1.905.805-.076 0-.157 0-.233-.005-1.505-.096-2.902-.684-3.951-1.185-2.867-1.388-5.385-3.358-7.477-5.855-1.727-2.082-2.882-4.007-3.647-6.074-.47-1.261-.643-2.244-.567-3.17a2.32 2.32 0 01.7-1.505l1.726-1.728c.249-.233.512-.36.77-.36.32 0 .578.193.74.355l.015.016c.31.288.603.587.912.906.157.162.319.324.481.492l1.383 1.382c.537.537.537 1.034 0 1.57-.147.148-.289.295-.436.436-.425.436-.83.841-1.271 1.236-.01.01-.02.016-.025.026-.436.435-.355.86-.264 1.15l.015.045c.36.871.866 1.692 1.636 2.67l.005.005c1.399 1.722 2.873 3.064 4.498 4.092.208.132.421.239.624.34.182.091.354.177.501.268.02.01.04.026.06.036.173.086.335.126.502.126.42 0 .684-.263.77-.35l1.733-1.732c.172-.172.445-.38.764-.38.314 0 .573.198.73.37l.01.01 2.791 2.792c.522.516.522 1.048.005 1.585zM13.053 5.709a6.423 6.423 0 013.495 1.813 6.457 6.457 0 011.814 3.495.68.68 0 00.673.568c.04 0 .076-.005.117-.01a.685.685 0 00.562-.79 7.814 7.814 0 00-2.193-4.23 7.813 7.813 0 00-4.23-2.193.687.687 0 00-.79.557c-.066.37.177.73.552.79zm11.002 4.878a12.853 12.853 0 00-3.611-6.965A12.853 12.853 0 0013.479.01a.681.681 0 00-.785.558.687.687 0 00.562.79c2.36.4 4.513 1.52 6.225 3.226a11.475 11.475 0 013.227 6.226.68.68 0 00.674.567c.04 0 .076-.005.116-.01a.671.671 0 00.557-.78z"/></g><defs><clipPath id="clip0"><path d="M.083 0h24v24h-24V0z" fill="#fff"/></clipPath></defs></svg>