<svg width="25" height="24" fill="none" xmlns="http://www.w3.org/2000/svg"><g clip-path="url(#clip0)" fill="#000"><path d="M5.535 4.668c3.543-3.144 8.846-3.192 12.439-.322l-2.848.105a.652.652 0 00-.637.673.658.658 0 00.662.625h.024l4.372-.158a.653.653 0 00.637-.65v-.076l-.162-4.24a.657.657 0 00-.686-.624.652.652 0 00-.637.672l.103 2.659c-1.78-1.428-3.97-2.255-6.313-2.37a10.918 10.918 0 00-7.84 2.744C1.687 6.336.432 10.335 1.373 14.142a.656.656 0 00.8.475.65.65 0 00.484-.783 9.267 9.267 0 012.877-9.166zm17.168 4.729a.663.663 0 00-.8-.475.65.65 0 00-.484.783c.828 3.345-.275 6.859-2.877 9.166a9.633 9.633 0 01-6.406 2.418 9.66 9.66 0 01-6.11-2.158l2.88-.255a.652.652 0 00.599-.707.654.654 0 00-.72-.586l-4.357.385a.652.652 0 00-.598.706l.392 4.273c.03.337.318.591.656.591.02 0 .04 0 .06-.004a.652.652 0 00.597-.707l-.235-2.6a10.933 10.933 0 006.288 2.35 10.937 10.937 0 007.841-2.745c2.96-2.629 4.215-6.623 3.274-10.435z"/></g><defs><clipPath id="clip0"><path d="M.039 0h24v23.538h-24V0z" fill="#fff"/></clipPath></defs></svg>