<svg width="25" height="24" fill="none" xmlns="http://www.w3.org/2000/svg"><g clip-path="url(#clip0)" fill="#131429"><path d="M14.018 2.73a9.262 9.262 0 00-7.829 4.3H2.646A2.608 2.608 0 00.04 9.636v4.726a2.608 2.608 0 002.607 2.608H6.19a9.262 9.262 0 007.829 4.3.665.665 0 00.668-.668V3.397a.668.668 0 00-.668-.668zm-8.12 12.905H2.646c-.702 0-1.271-.57-1.271-1.272V9.637c0-.703.569-1.272 1.271-1.272h3.252v7.27zm7.452 4.275a7.975 7.975 0 01-6.116-3.79V7.885a7.975 7.975 0 016.116-3.79V19.91zm3.953-13.084a.664.664 0 00-.93.169.664.664 0 00.168.93 4.981 4.981 0 012.133 4.083 4.98 4.98 0 01-2.133 4.082.673.673 0 00-.168.93.667.667 0 00.93.168 6.325 6.325 0 002.707-5.176 6.337 6.337 0 00-2.707-5.186z"/><path d="M19.887 4.06a.664.664 0 00-.93.168.664.664 0 00.168.93 8.352 8.352 0 013.578 6.844 8.345 8.345 0 01-3.578 6.844.673.673 0 00-.168.93.667.667 0 00.93.168 9.692 9.692 0 004.152-7.941 9.68 9.68 0 00-4.152-7.943z"/></g><defs><clipPath id="clip0"><path d="M.039 0h24v24h-24V0z" fill="#fff"/></clipPath></defs></svg>