<svg width="24" height="24" fill="none" xmlns="http://www.w3.org/2000/svg"><g clip-path="url(#clip0)"><path d="M23.967 9.202a.67.67 0 00-.537-.453l-7.487-1.064-3.37-6.773a.663.663 0 00-1.192.005L8.056 7.71.57 8.823a.67.67 0 00-.537.453.658.658 0 00.173.68l5.433 5.266-1.256 7.457a.656.656 0 00.266.65.658.658 0 00.7.05l6.684-3.542 6.704 3.502a.668.668 0 00.97-.591.52.52 0 00-.02-.152l-1.295-7.414 5.399-5.295a.651.651 0 00.177-.685zm-6.748 5.276a.658.658 0 00-.188.59l1.129 6.469-5.823-3.04a.674.674 0 00-.62 0l-5.803 3.074 1.088-6.478a.664.664 0 00-.192-.586L2.101 9.936l6.497-.965a.66.66 0 00.498-.365l2.886-5.896 2.926 5.881a.68.68 0 00.503.365l6.502.926-4.694 4.596z" fill="#131429"/></g><defs><clipPath id="clip0"><path d="M0 0h24v24H0V0z" fill="#fff"/></clipPath></defs></svg>