<svg width="24" height="24" fill="none" xmlns="http://www.w3.org/2000/svg"><path d="M23.312 11.723a.685.685 0 00-.687.687v6.255a3.086 3.086 0 01-3.082 3.081H4.457a3.086 3.086 0 01-3.082-3.081v-6.357a.685.685 0 00-.687-.687.685.685 0 00-.688.687v6.357a4.462 4.462 0 004.457 4.457h15.086A4.462 4.462 0 0024 18.665V12.41a.688.688 0 00-.688-.688z" fill="#131429"/><path d="M8.114 6.425l3.198-3.198v13.95c0 .383.306.688.688.688a.685.685 0 00.687-.688V3.227l3.2 3.198c.131.133.31.204.483.204a.663.663 0 00.484-.204.686.686 0 000-.972l-4.37-4.37A.696.696 0 0012 .878a.666.666 0 00-.484.203l-4.37 4.37a.686.686 0 10.968.973z" fill="#131429"/></svg>