<svg width="25" height="25" fill="none" xmlns="http://www.w3.org/2000/svg"><g clip-path="url(#clip0)" fill="#131429"><path d="M11.977 13.19h.159c1.456-.025 2.634-.547 3.503-1.546 1.914-2.2 1.596-5.971 1.561-6.331-.124-2.702-1.377-3.995-2.41-4.598C14.02.264 13.12.02 12.116 0h-.085c-.551 0-1.635.091-2.674.695-1.043.603-2.316 1.895-2.44 4.618-.035.36-.353 4.131 1.56 6.331.865.999 2.043 1.521 3.5 1.546zM8.244 5.44c0-.016.005-.031.005-.041.164-3.635 2.694-4.025 3.777-4.025h.06c1.342.03 3.623.588 3.777 4.025a.1.1 0 00.005.04c.005.036.353 3.483-1.228 5.298-.626.72-1.46 1.075-2.56 1.085h-.049c-1.093-.01-1.933-.365-2.554-1.085C7.9 8.932 8.239 5.47 8.244 5.439z"/><path d="M22.27 19.446v-.015c0-.04-.005-.081-.005-.127-.03-1.003-.095-3.35-2.252-4.1-.015-.006-.035-.011-.05-.016-2.241-.583-4.105-1.901-4.125-1.916a.662.662 0 00-.934.167.692.692 0 00.164.953c.085.06 2.063 1.465 4.538 2.114 1.158.42 1.287 1.683 1.322 2.839 0 .045 0 .086.005.127.005.456-.025 1.16-.105 1.566-.805.466-3.96 2.078-8.762 2.078-4.781 0-7.957-1.617-8.767-2.083-.08-.406-.114-1.11-.104-1.567 0-.04.005-.08.005-.126.034-1.156.164-2.418 1.322-2.84 2.475-.648 4.453-2.057 4.537-2.113a.692.692 0 00.164-.953.662.662 0 00-.934-.167c-.02.015-1.874 1.333-4.125 1.916a.617.617 0 00-.05.015c-2.157.755-2.221 3.102-2.251 4.101 0 .046 0 .086-.005.127v.015c-.005.264-.01 1.617.253 2.297.05.131.14.243.259.319.149.101 3.722 2.423 9.701 2.423 5.979 0 9.552-2.327 9.702-2.423a.676.676 0 00.258-.32c.248-.674.243-2.027.239-2.29z"/></g><defs><clipPath id="clip0"><path d="M.063 0h24v24.48h-24V0z" fill="#fff"/></clipPath></defs></svg>