<svg width="25" height="24" fill="none" xmlns="http://www.w3.org/2000/svg"><g clip-path="url(#clip0)" fill="#131429"><path d="M1.566 10.86a.604.604 0 00-.605.604v11.292c0 .334.27.605.605.605h5.52c.335 0 .605-.27.605-.605V11.464a.604.604 0 00-.605-.604h-5.52zm4.916 11.292H2.165V12.064h4.317v10.088zM9.598 1.244v21.512c0 .334.27.605.605.605h5.52c.335 0 .605-.27.605-.605V1.244a.604.604 0 00-.604-.605h-5.526c-.33.005-.6.27-.6.605zm1.205.604h4.316v20.309h-4.316V1.848zm13.553 21.508c.335 0 .605-.27.605-.605V8.264a.604.604 0 00-.605-.605h-5.52a.604.604 0 00-.605.605v14.492c0 .334.27.605.605.605h5.52v-.005zM19.44 8.868h4.317v13.288H19.44V8.868z"/></g><defs><clipPath id="clip0"><path d="M.96 0h24v24h-24V0z" fill="#fff"/></clipPath></defs></svg>