<svg width="24" height="24" fill="none" xmlns="http://www.w3.org/2000/svg"><g clip-path="url(#clip0)"><path d="M22.964 7.683a3.54 3.54 0 00.21-1.004c.035-.708-.14-1.701-1.139-2.605a3.068 3.068 0 00-.341-1.922c-.537-.964-1.586-1.616-3.122-1.943-1.029-.22-2.38-.266-4.015-.14-3.298-.065-6.51.341-6.69.366l-1.18.14a2.084 2.084 0 00-1.205-.38H2.42A2.09 2.09 0 00.333 2.281v8.156a2.09 2.09 0 002.087 2.088h3.062c.361 0 .698-.09.994-.25.21.461.522.988.984 1.475.025.025.05.05.08.07 1.576 1.21 3.433 5.566 4.09 7.343-.065.552-.13 1.747.422 2.394.246.286.587.442.969.442.386 0 1.721-.09 2.554-1.24.788-1.094.834-2.73.131-4.868-.592-1.797-.647-2.595-.627-2.916.27.06.537.115.793.16h.005c.045.01 1.149.256 2.469.317 1.877.09 3.237-.236 4.03-.964 1.095-.999.964-2.274.638-3.087.28-.366.622-.964.652-1.727.02-.692-.21-1.36-.702-1.992zM5.482 11.176H2.42a.734.734 0 01-.732-.733V2.287c0-.406.33-.732.732-.732h3.062c.407 0 .733.33.733.732v8.156a.73.73 0 01-.733.733zm16.146.487c0 .005.176.281.236.658.076.466-.055.853-.406 1.174-.959.873-3.72.673-5.26.331l-.065-.015c-.276-.05-.573-.11-.874-.175-.32-.116-.763-.1-1.094.195-.667.593-.592 1.938.246 4.492.552 1.677.572 2.942.06 3.65-.431.597-1.144.672-1.415.677-.12-.2-.156-.888-.065-1.456a.771.771 0 00-.03-.336c-.096-.256-2.3-6.289-4.553-8.076-.587-.637-.843-1.385-.933-1.721.06-.196.095-.407.095-.623v-8.15a2.13 2.13 0 00-.045-.442l.507-.06h.005c.03-.006 3.297-.427 6.525-.357h.07c1.52-.12 2.75-.085 3.659.11 1.124.241 1.867.663 2.208 1.26.357.618.16 1.255.146 1.315a.662.662 0 00.23.768c1.486 1.115.804 2.414.713 2.575a.661.661 0 00.09.818c.432.452.643.904.628 1.345-.02.658-.527 1.15-.562 1.18a.661.661 0 00-.116.863z" fill="#131429"/></g><defs><clipPath id="clip0"><path d="M0 0h24v24H0V0z" fill="#fff"/></clipPath></defs></svg>