<svg width="25" height="24" fill="none" xmlns="http://www.w3.org/2000/svg"><g clip-path="url(#clip0)" fill="#131429"><path d="M24.039 12c0-6.617-5.384-12-12-12-6.617 0-12 5.383-12 12s5.383 12 12 12c6.616 0 12-5.383 12-12zM1.238 12c0-5.956 4.845-10.801 10.8-10.801C17.995 1.199 22.84 6.044 22.84 12s-4.846 10.801-10.801 10.801C6.083 22.801 1.238 17.956 1.238 12z"/><path d="M12.464 17.638l3.372-3.372a.597.597 0 000-.847.597.597 0 00-.847 0l-2.349 2.35V6.787a.602.602 0 10-1.204 0v8.975l-2.349-2.349a.597.597 0 00-.846 0 .597.597 0 000 .847l3.372 3.372a.596.596 0 00.425.176.59.59 0 00.426-.171z"/></g><defs><clipPath id="clip0"><path d="M.039 0h24v24h-24V0z" fill="#fff"/></clipPath></defs></svg>