<svg width="25" height="24" fill="none" xmlns="http://www.w3.org/2000/svg"><g clip-path="url(#clip0)" fill="#131429"><path d="M23.351 11.488c-.382 0-.688.3-.688.674v6.13c0 1.667-1.385 3.02-3.081 3.02H4.495c-1.7 0-3.081-1.358-3.081-3.02v-6.23a.678.678 0 00-.688-.674c-.382 0-.687.3-.687.674v6.23c0 2.41 2.001 4.367 4.456 4.367h15.087c2.46 0 4.457-1.962 4.457-4.368v-6.13a.681.681 0 00-.688-.673z"/><path d="M11.555 17.308a.7.7 0 00.484.2.678.678 0 00.484-.2l4.37-4.283a.663.663 0 000-.953.696.696 0 00-.973 0l-3.194 3.135V1.535A.678.678 0 0012.04.86c-.382 0-.688.3-.688.674v13.672l-3.199-3.135a.696.696 0 00-.972 0 .662.662 0 000 .953l4.375 4.283z"/></g><defs><clipPath id="clip0"><path d="M.039 0h24v23.52h-24V0z" fill="#fff"/></clipPath></defs></svg>