<svg width="25" height="24" fill="none" xmlns="http://www.w3.org/2000/svg"><g clip-path="url(#clip0)" fill="#131429"><path d="M22.077 12.61V2.982C22.077 1.34 20.711 0 19.037 0H6.885c-1.674 0-3.04 1.34-3.04 2.982v9.632c0 1.643 1.366 2.982 3.04 2.982h1.968a.596.596 0 00.603-.59.597.597 0 00-.603-.591H6.885c-1.013 0-1.84-.811-1.84-1.805V2.982c0-.994.827-1.806 1.84-1.806h12.152c1.013 0 1.84.812 1.84 1.806v9.632c0 .994-.827 1.806-1.84 1.806h-1.968a.596.596 0 00-.602.59c0 .327.269.591.602.591h1.968c1.68-.005 3.04-1.344 3.04-2.992z"/><path d="M12.96 9.906a.596.596 0 00-.601.59v11.035l-3.085-3.025a.605.605 0 00-.847 0 .578.578 0 000 .83l4.108 4.03a.615.615 0 00.852 0l4.108-4.03a.578.578 0 000-.83.605.605 0 00-.847 0l-3.085 3.025V10.497a.6.6 0 00-.602-.59z"/></g><defs><clipPath id="clip0"><path d="M.96 0h24v23.538h-24V0z" fill="#fff"/></clipPath></defs></svg>