<svg width="24" height="24" fill="none" xmlns="http://www.w3.org/2000/svg"><g clip-path="url(#clip0)"><path d="M22.445 1.555a5.293 5.293 0 00-7.491 0L1.219 15.285a.687.687 0 00-.195.394L.007 23.216a.684.684 0 00.194.578.699.699 0 00.486.206c.03 0 .061 0 .092-.005l4.54-.614a.691.691 0 10-.183-1.37l-3.641.49.71-5.256 5.534 5.533a.677.677 0 00.972 0l13.734-13.73A5.264 5.264 0 0024 5.297a5.244 5.244 0 00-1.555-3.743zM15.22 3.242l2.306 2.307L4.993 18.082l-2.307-2.306L15.22 3.242zM8.23 21.314L5.973 19.06 18.508 6.525l2.255 2.256L8.229 21.314zm13.494-13.52l-5.517-5.518a3.906 3.906 0 012.495-.895c1.048 0 2.03.41 2.772 1.146a3.878 3.878 0 011.145 2.771c0 .926-.317 1.795-.895 2.496z" fill="#131429"/></g><defs><clipPath id="clip0"><path d="M0 0h24v24H0V0z" fill="#fff"/></clipPath></defs></svg>