<svg width="25" height="24" fill="none" xmlns="http://www.w3.org/2000/svg"><g clip-path="url(#clip0)" fill="#131429"><path d="M11.816 6.392a1.126 1.126 0 001.126-1.126c0-1.906.554-3.013 2.053-3.013h3.18a1.126 1.126 0 000-2.253h-3.18c-2.699 0-4.305 1.92-4.305 5.266 0 .621.504 1.126 1.126 1.126zm6.118 2.562H6.416a1.126 1.126 0 000 2.252h4.274v11.668a1.126 1.126 0 002.253 0V11.207h4.992a1.126 1.126 0 000-2.253z"/></g><defs><clipPath id="clip0"><path d="M.296 0h24v24h-24V0z" fill="#fff"/></clipPath></defs></svg>