<svg width="24" height="24" fill="none" xmlns="http://www.w3.org/2000/svg"><path d="M23.52 12C23.52 5.638 18.362.48 12 .48 5.638.48.48 5.638.48 12c0 5.75 4.213 10.516 9.72 11.38v-8.05H7.275V12H10.2V9.462c0-2.887 1.72-4.482 4.351-4.482 1.26 0 2.579.225 2.579.225V8.04h-1.453c-1.43 0-1.877.888-1.877 1.8V12h3.195l-.51 3.33H13.8v8.05c5.507-.864 9.72-5.63 9.72-11.38z" fill="#1877F2"/><path d="M16.484 15.33l.51-3.33H13.8V9.84c0-.911.446-1.8 1.877-1.8h1.453V5.205s-1.318-.225-2.579-.225c-2.631 0-4.351 1.595-4.351 4.482V12H7.275v3.33H10.2v8.05a11.62 11.62 0 003.6 0v-8.05h2.684z" fill="#fff"/></svg>