<svg width="24" height="24" fill="none" xmlns="http://www.w3.org/2000/svg"><path d="M20.145 4.785h-5.686c-1.382 0-2.509-1.1-2.509-2.46 0-.367-.3-.66-.673-.66H3.855C1.731 1.665 0 3.362 0 5.445v12.64c0 2.083 1.73 3.78 3.855 3.78h16.29c2.124 0 3.855-1.697 3.855-3.78V8.559c0-2.083-1.73-3.774-3.855-3.774zm2.508 13.295c0 1.354-1.122 2.46-2.508 2.46H3.855c-1.381 0-2.508-1.1-2.508-2.46V5.445c0-1.355 1.122-2.46 2.508-2.46h6.808c.32 1.77 1.9 3.12 3.796 3.12h5.686c1.381 0 2.508 1.1 2.508 2.46v9.515z" fill="#131429"/></svg>