<svg width="25" height="24" fill="none" xmlns="http://www.w3.org/2000/svg"><g clip-path="url(#clip0)" fill="#131429"><path d="M22.855 9.481l-1.685-.286a9.517 9.517 0 00-.677-1.634l.993-1.389a1.478 1.478 0 00-.16-1.91L19.83 2.768a1.472 1.472 0 00-1.905-.16l-1.393.992a9.414 9.414 0 00-1.695-.697l-.28-1.664A1.481 1.481 0 0013.092 0h-2.11c-.728 0-1.344.522-1.465 1.239l-.29 1.704a9.277 9.277 0 00-1.63.687L6.22 2.638a1.472 1.472 0 00-.863-.276c-.396 0-.772.155-1.048.436L2.81 4.292a1.484 1.484 0 00-.16 1.91l1.003 1.409a9.291 9.291 0 00-.667 1.64l-1.665.28a1.481 1.481 0 00-1.238 1.464v2.11a1.48 1.48 0 001.238 1.465l1.705.29c.175.562.406 1.109.687 1.63l-.988 1.374a1.478 1.478 0 00.16 1.91l1.495 1.494a1.472 1.472 0 001.905.16l1.409-1.002a9.48 9.48 0 001.584.651l.28 1.685c.12.717.738 1.238 1.465 1.238h2.115a1.48 1.48 0 001.464-1.238l.286-1.685a9.502 9.502 0 001.634-.676l1.39.992c.25.18.55.276.861.276.397 0 .768-.155 1.048-.436l1.494-1.494a1.484 1.484 0 00.16-1.91l-.992-1.394a9.442 9.442 0 00.677-1.634l1.684-.281a1.481 1.481 0 001.239-1.464v-2.11a1.463 1.463 0 00-1.228-1.465zm-.116 3.575a.13.13 0 01-.11.13l-2.106.351a.673.673 0 00-.541.496 8.024 8.024 0 01-.873 2.101.678.678 0 00.03.737l1.239 1.745c.035.05.03.125-.015.17l-1.494 1.494a.127.127 0 01-.096.04.123.123 0 01-.075-.025l-1.74-1.238a.677.677 0 00-.736-.03 8.028 8.028 0 01-2.101.872.665.665 0 00-.496.542l-.356 2.105a.13.13 0 01-.13.11h-2.111a.13.13 0 01-.13-.11l-.352-2.105a.673.673 0 00-.496-.542 8.334 8.334 0 01-2.056-.842.694.694 0 00-.34-.09.66.66 0 00-.392.125L5.508 20.34a.149.149 0 01-.076.026.134.134 0 01-.095-.04L3.843 18.83a.136.136 0 01-.015-.17l1.233-1.73a.686.686 0 00.03-.742 7.949 7.949 0 01-.882-2.095.687.687 0 00-.541-.497l-2.121-.36a.13.13 0 01-.11-.131v-2.11a.13.13 0 01.11-.131l2.09-.351a.678.678 0 00.547-.502 8.018 8.018 0 01.857-2.105.67.67 0 00-.035-.732L3.758 5.42a.137.137 0 01.015-.17l1.494-1.494a.127.127 0 01.095-.04c.03 0 .055.01.075.025l1.73 1.233c.22.155.512.165.742.03a7.95 7.95 0 012.096-.882.687.687 0 00.496-.542l.361-2.12a.13.13 0 01.13-.11h2.111a.13.13 0 01.13.11l.351 2.09a.68.68 0 00.502.547c.757.19 1.479.486 2.15.882a.681.681 0 00.738-.03l1.73-1.244a.15.15 0 01.075-.025c.02 0 .06.005.095.04l1.494 1.495c.045.045.05.115.015.17l-1.238 1.74a.678.678 0 00-.03.737c.39.656.681 1.363.872 2.1.065.261.28.457.541.497l2.106.356a.13.13 0 01.11.13v2.11h-.005z"/><path d="M12.085 6.818a5.182 5.182 0 00-5.179 5.18 5.182 5.182 0 005.18 5.179 5.182 5.182 0 005.178-5.18 5.182 5.182 0 00-5.179-5.179zm0 9.005a3.828 3.828 0 01-3.825-3.825 3.828 3.828 0 013.825-3.826 3.828 3.828 0 013.826 3.825 3.828 3.828 0 01-3.826 3.826z"/></g><defs><clipPath id="clip0"><path d="M.083 0h24v24h-24V0z" fill="#fff"/></clipPath></defs></svg>