<svg width="24" height="24" fill="none" xmlns="http://www.w3.org/2000/svg"><path fill-rule="evenodd" clip-rule="evenodd" d="M23.06 12.262c0-.817-.074-1.603-.21-2.357H12v4.457h6.2a5.3 5.3 0 01-2.299 3.476v2.891h3.723c2.178-2.006 3.435-4.959 3.435-8.467z" fill="#4285F4"/><path fill-rule="evenodd" clip-rule="evenodd" d="M12 23.52c3.11 0 5.718-1.032 7.624-2.79L15.9 17.838c-1.032.69-2.351 1.1-3.901 1.1-3 0-5.54-2.027-6.446-4.75H1.705v2.985A11.516 11.516 0 0012 23.52z" fill="#34A853"/><path fill-rule="evenodd" clip-rule="evenodd" d="M5.554 14.189a6.925 6.925 0 01-.361-2.19c0-.758.13-1.497.361-2.188V6.826H1.705A11.515 11.515 0 00.48 12c0 1.859.445 3.618 1.225 5.174l3.849-2.985z" fill="#FBBC05"/><path fill-rule="evenodd" clip-rule="evenodd" d="M12 5.062c1.691 0 3.21.581 4.404 1.723l3.304-3.305c-1.995-1.858-4.603-3-7.708-3-4.503 0-8.4 2.582-10.295 6.346l3.849 2.985C6.46 7.088 8.999 5.061 12 5.061z" fill="#EA4335"/></svg>