<svg width="25" height="24" fill="none" xmlns="http://www.w3.org/2000/svg"><g clip-path="url(#clip0)"><path d="M23.817 10.882L12.523.782a.315.315 0 00-.064-.049.668.668 0 00-.904-.015L.261 10.818a.67.67 0 00-.054.943.668.668 0 00.943.054l2.033-1.821V21.77c0 .924.75 1.68 1.679 1.68h3.564c.868 0 1.574-.707 1.574-1.576v-5.987c0-.134.109-.242.242-.242h3.599c.133 0 .242.108.242.242v5.987c0 .87.706 1.575 1.574 1.575h3.564c.938 0 1.679-.923 1.679-2.103V10.058l2.033 1.821a.668.668 0 00.943-.054.68.68 0 00-.059-.943zm-4.255 3.293v7.162c0 .48-.237.77-.346.77h-3.564a.242.242 0 01-.241-.241v-5.978c0-.87-.706-1.575-1.575-1.575h-3.599c-.868 0-1.574.706-1.574 1.575v5.987a.242.242 0 01-.242.242H4.856a.347.347 0 01-.345-.345V8.799l7.494-6.693 7.557 6.757v5.312z" fill="#131429"/></g><defs><clipPath id="clip0"><path d="M.039 0h24v24h-24V0z" fill="#fff"/></clipPath></defs></svg>