<svg width="24" height="25" fill="none" xmlns="http://www.w3.org/2000/svg"><g clip-path="url(#clip0)" fill="#131429"><path d="M17.377 0H6.623C2.97 0 0 3.023 0 6.74v10.942c0 3.716 2.971 6.739 6.623 6.739h10.754c3.652 0 6.623-3.023 6.623-6.74V6.74C24 3.023 21.029 0 17.377 0zm4.494 17.682c0 2.521-2.016 4.572-4.494 4.572H6.623c-2.478 0-4.494-2.051-4.494-4.572V6.739c0-2.52 2.016-4.572 4.494-4.572h10.754c2.478 0 4.494 2.051 4.494 4.572v10.943z"/><path d="M12 5.918c-3.41 0-6.184 2.823-6.184 6.293S8.59 18.503 12 18.503s6.184-2.823 6.184-6.292c0-3.47-2.774-6.293-6.184-6.293zm0 10.418c-2.236 0-4.055-1.85-4.055-4.125S9.765 8.085 12 8.085c2.236 0 4.055 1.85 4.055 4.126 0 2.274-1.82 4.125-4.055 4.125zM18.443 4.08c-.41 0-.813.17-1.103.466a1.61 1.61 0 00-.458 1.124c0 .417.167.827.458 1.124.29.294.693.465 1.103.465.412 0 .814-.17 1.105-.465a1.61 1.61 0 000-2.248 1.555 1.555 0 00-1.105-.465z"/></g><defs><clipPath id="clip0"><path d="M0 0h24v24.421H0V0z" fill="#fff"/></clipPath></defs></svg>