<svg width="24" height="24" fill="none" xmlns="http://www.w3.org/2000/svg"><g clip-path="url(#clip0)" fill="#131429"><path d="M12 23.538c6.617 0 12-5.28 12-11.769S18.617 0 12 0 0 5.28 0 11.77c0 6.489 5.383 11.768 12 11.768zm0-22.362c5.956 0 10.801 4.752 10.801 10.593 0 5.842-4.845 10.594-10.801 10.594S1.199 17.61 1.199 11.769C1.199 5.928 6.044 1.176 12 1.176z"/><path d="M9.734 15.494c.118.115.27.173.426.173a.602.602 0 00.426-.173.577.577 0 000-.83l-2.35-2.304h8.976a.596.596 0 00.602-.59.596.596 0 00-.602-.591H8.237l2.349-2.304a.577.577 0 000-.83.605.605 0 00-.847 0l-3.372 3.307a.577.577 0 000 .83l3.367 3.312z"/></g><defs><clipPath id="clip0"><path d="M0 0h24v23.538H0V0z" fill="#fff"/></clipPath></defs></svg>