<svg width="25" height="25" fill="none" xmlns="http://www.w3.org/2000/svg"><g clip-path="url(#clip0)" fill="#131429"><path d="M2.576 5.758c-.653 0-1.182.54-1.182 1.206v16.3c0 .667.529 1.207 1.182 1.207.653 0 1.183-.54 1.183-1.206V6.964c0-.666-.53-1.206-1.183-1.206zm9.625 2.916a6.575 6.575 0 014.317-1.618c3.683 0 6.68 3.056 6.68 6.812v9.397c0 .666-.529 1.206-1.182 1.206-.653 0-1.183-.54-1.183-1.206v-9.397c0-2.427-1.936-4.4-4.315-4.4-2.38 0-4.317 1.973-4.317 4.4v9.397c0 .666-.529 1.206-1.182 1.206-.653 0-1.183-.54-1.183-1.206V6.964c0-.666.53-1.206 1.183-1.206s1.182.54 1.182 1.206v1.71zM2.576 2.411a1.187 1.187 0 001.182-1.204 1.23 1.23 0 00-.345-.853A1.189 1.189 0 002.576 0c-.311 0-.615.13-.836.354a1.226 1.226 0 000 1.705c.22.224.525.352.836.352z"/></g><defs><clipPath id="clip0"><path d="M.296 0h24v24.47h-24V0z" fill="#fff"/></clipPath></defs></svg>