<svg width="24" height="25" fill="none" xmlns="http://www.w3.org/2000/svg"><g clip-path="url(#clip0)" fill="#131429"><path d="M11.593 23.087h-6.26c-1.7 0-3.08-1.414-3.08-3.145V4.548c0-1.736 1.385-3.145 3.08-3.145h6.362a.692.692 0 00.688-.701.692.692 0 00-.688-.702H5.334C2.874 0 .877 2.043.877 4.548v15.394c0 2.51 2.002 4.548 4.457 4.548h6.26a.692.692 0 00.687-.702c0-.39-.31-.701-.688-.701z"/><path d="M22.921 11.751l-4.37-4.46a.676.676 0 00-.973 0 .71.71 0 000 .993l3.199 3.264H6.827a.692.692 0 00-.688.702c0 .39.305.702.687.702h13.951l-3.199 3.264a.71.71 0 000 .992.664.664 0 00.968 0l4.37-4.459a.711.711 0 00.005-.998z"/></g><defs><clipPath id="clip0"><path d="M0 0h24v24.49H0V0z" fill="#fff"/></clipPath></defs></svg>