<svg width="25" height="24" fill="none" xmlns="http://www.w3.org/2000/svg"><g clip-path="url(#clip0)" fill="#131429"><path d="M.039 5.811v11.916c0 1.642 1.365 2.981 3.04 2.981h9.819c1.674 0 3.04-1.34 3.04-2.981v-1.93c0-.326-.27-.59-.603-.59a.596.596 0 00-.602.59v1.93c0 .994-.827 1.805-1.84 1.805H3.078c-1.013 0-1.84-.811-1.84-1.805V5.811c0-.993.827-1.805 1.84-1.805h9.82c1.013 0 1.84.812 1.84 1.805v1.93c0 .327.27.59.602.59a.596.596 0 00.602-.59v-1.93c0-1.641-1.365-2.98-3.04-2.98H3.079c-1.674 0-3.04 1.334-3.04 2.98z"/><path d="M18.904 16.21c.118.115.27.173.426.173a.602.602 0 00.426-.173l4.107-4.028a.578.578 0 000-.83l-4.107-4.028a.605.605 0 00-.847 0 .577.577 0 000 .83l3.084 3.025H10.739a.596.596 0 00-.602.59c0 .327.27.59.602.59h11.249l-3.084 3.025a.572.572 0 000 .826z"/></g><defs><clipPath id="clip0"><path d="M.039 0h24v23.538h-24V0z" fill="#fff"/></clipPath></defs></svg>