<svg width="25" height="24" fill="none" xmlns="http://www.w3.org/2000/svg"><g clip-path="url(#clip0)" fill="#131429"><path d="M21.153 2.868H3.018A2.937 2.937 0 00.083 5.803v12.394a2.937 2.937 0 002.935 2.935h18.13a2.937 2.937 0 002.935-2.935V5.807a2.934 2.934 0 00-2.93-2.94zm1.594 15.33c0 .878-.715 1.593-1.594 1.593H3.018a1.596 1.596 0 01-1.594-1.594V5.807c0-.878.715-1.593 1.594-1.593h18.13c.88 0 1.594.715 1.594 1.594v12.39h.005z"/><path d="M15.219 11.846l5.87-5.264a.674.674 0 00.05-.948.674.674 0 00-.95-.05l-8.094 7.265-1.579-1.41c-.005-.005-.01-.01-.01-.015a.986.986 0 00-.109-.094L3.971 5.58a.67.67 0 00-.948.054.67.67 0 00.054.948l5.94 5.309-5.915 5.537a.673.673 0 00.919.983l6.004-5.616 1.628 1.455a.67.67 0 00.894-.005l1.674-1.5 5.969 5.67a.67.67 0 10.924-.973l-5.895-5.596z"/></g><defs><clipPath id="clip0"><path d="M.083 0h24v24h-24V0z" fill="#fff"/></clipPath></defs></svg>