<svg width="25" height="24" fill="none" xmlns="http://www.w3.org/2000/svg"><g clip-path="url(#clip0)" fill="#131429"><path d="M12.961.393a2.917 2.917 0 100 5.832 2.917 2.917 0 000-5.832zm0 4.63c-.943 0-1.714-.77-1.714-1.714a1.714 1.714 0 111.714 1.714zm9.083-4.63a2.917 2.917 0 100 5.832 2.917 2.917 0 000-5.832zm0 4.63c-.942 0-1.713-.77-1.713-1.714 0-.942.766-1.713 1.713-1.713.943 0 1.714.77 1.714 1.713 0 .943-.77 1.714-1.713 1.714zM3.877.393a2.917 2.917 0 100 5.832 2.917 2.917 0 000-5.832zm0 4.63c-.942 0-1.713-.77-1.713-1.714 0-.942.77-1.713 1.713-1.713.943 0 1.714.77 1.714 1.713 0 .943-.766 1.714-1.714 1.714zm9.084 4.061a2.917 2.917 0 100 5.832 2.917 2.917 0 000-5.832zm0 4.63c-.943 0-1.714-.771-1.714-1.714s.766-1.714 1.714-1.714a1.715 1.715 0 010 3.428zm9.083-4.63a2.917 2.917 0 100 5.832 2.917 2.917 0 000-5.832zm0 4.63c-.942 0-1.713-.771-1.713-1.714s.766-1.714 1.713-1.714c.943 0 1.714.771 1.714 1.714s-.77 1.714-1.713 1.714zM3.877 9.084a2.917 2.917 0 100 5.832 2.917 2.917 0 000-5.832zm0 4.63c-.942 0-1.713-.771-1.713-1.714s.766-1.714 1.713-1.714c.948 0 1.714.771 1.714 1.714s-.766 1.714-1.714 1.714zm9.084 4.06a2.92 2.92 0 00-2.917 2.917 2.917 2.917 0 005.833 0 2.923 2.923 0 00-2.916-2.917zm0 4.63c-.943 0-1.714-.77-1.714-1.713a1.715 1.715 0 111.714 1.713zm9.083-4.63a2.92 2.92 0 00-2.916 2.917 2.917 2.917 0 005.833 0 2.923 2.923 0 00-2.917-2.917zm0 4.63c-.942 0-1.713-.77-1.713-1.713 0-.943.766-1.714 1.713-1.714.943 0 1.714.771 1.714 1.714 0 .947-.77 1.713-1.713 1.713zm-18.167-4.63a2.92 2.92 0 00-2.916 2.917 2.917 2.917 0 102.917-2.916zm0 4.63c-.942 0-1.713-.77-1.713-1.713 0-.943.766-1.714 1.713-1.714.948 0 1.714.771 1.714 1.714 0 .947-.766 1.713-1.714 1.713z"/></g><defs><clipPath id="clip0"><path d="M.96 0h24v24h-24V0z" fill="#fff"/></clipPath></defs></svg>