<svg width="25" height="24" fill="none" xmlns="http://www.w3.org/2000/svg"><path d="M12.96 9.086A2.918 2.918 0 0010.047 12a2.918 2.918 0 002.915 2.914A2.918 2.918 0 0015.875 12a2.918 2.918 0 00-2.914-2.914zM14.676 12c0 .945-.769 1.714-1.714 1.714A1.716 1.716 0 0111.246 12c0-.945.77-1.714 1.715-1.714.945 0 1.714.769 1.714 1.714zm-4.63 9.086A2.918 2.918 0 0012.961 24a2.918 2.918 0 002.914-2.914 2.918 2.918 0 00-2.914-2.915 2.918 2.918 0 00-2.915 2.915zm4.629 0c0 .945-.769 1.714-1.714 1.714a1.716 1.716 0 01-1.715-1.714c0-.946.77-1.715 1.715-1.715.945 0 1.714.77 1.714 1.715zM10.046 2.914a2.918 2.918 0 002.915 2.915 2.918 2.918 0 002.914-2.915A2.918 2.918 0 0012.961 0a2.918 2.918 0 00-2.915 2.914zm4.629 0c0 .946-.769 1.715-1.714 1.715a1.716 1.716 0 01-1.715-1.715c0-.945.77-1.714 1.715-1.714.945 0 1.714.769 1.714 1.714z" fill="#131429"/></svg>