<svg width="24" height="24" fill="none" xmlns="http://www.w3.org/2000/svg"><g clip-path="url(#clip0)"><path d="M23.759 10.605l-10.6-8.735a.665.665 0 00-.703-.089.663.663 0 00-.378.6v4.604c-5.145.187-8.681 2.002-10.52 5.4-1.585 2.932-1.57 6.404-1.555 8.701v.531a.667.667 0 00.664.664.655.655 0 00.575-.334c3.59-6.33 6.547-6.635 10.83-6.65v4.589a.66.66 0 00.384.6.674.674 0 00.709-.088l10.594-8.765a.669.669 0 000-1.028zm-10.353 7.87v-3.842a.672.672 0 00-.664-.664c-2.676 0-4.727.074-6.719 1.003-1.721.802-3.212 2.165-4.682 4.304.059-1.953.314-4.284 1.382-6.256C4.415 9.892 7.69 8.342 12.742 8.298a.666.666 0 00.659-.664V3.788l8.887 7.333-8.882 7.353z" fill="#131429"/></g><defs><clipPath id="clip0"><path d="M0 0h24v24H0V0z" fill="#fff"/></clipPath></defs></svg>