<svg width="24" height="24" fill="none" xmlns="http://www.w3.org/2000/svg"><path d="M20.747 12.607h-9.352V3.255a.677.677 0 00-.68-.68C4.81 2.575.002 7.382.002 13.287.002 19.193 4.81 24 10.715 24c5.905 0 10.713-4.807 10.713-10.713a.684.684 0 00-.68-.68zM10.715 22.64c-5.155 0-9.352-4.198-9.352-9.353 0-4.928 3.83-8.979 8.672-9.326v9.326c0 .378.302.68.68.68h9.327c-.348 4.843-4.399 8.673-9.327 8.673z" fill="#131429"/><path d="M23.997 10.677a10.73 10.73 0 00-2.68-7.054A10.719 10.719 0 0013.285 0a.677.677 0 00-.68.68v10.033c0 .378.302.68.68.68h10.032c.378 0 .68-.303.68-.68v-.036zm-10.032-.64V1.391a9.35 9.35 0 016.329 3.139 9.343 9.343 0 012.318 5.507h-8.647z" fill="#131429"/></svg>