<svg width="25" height="24" fill="none" xmlns="http://www.w3.org/2000/svg"><g clip-path="url(#clip0)"><path d="M12.296 0c-6.617 0-12 5.383-12 12 0 3.061 1.153 5.976 3.246 8.208a.963.963 0 001.405-1.318A10.036 10.036 0 012.223 12c0-5.554 4.518-10.073 10.073-10.073 5.554 0 10.073 4.519 10.073 10.073S17.85 22.073 12.296 22.073c-.985 0-1.95-.14-2.88-.417l.985-3.851c.61.148 1.239.224 1.881.224 4.047 0 7.34-3.038 7.34-6.773s-3.293-6.773-7.34-6.773-7.34 3.038-7.34 6.773c0 1.346.427 2.646 1.234 3.76a.963.963 0 101.56-1.13 4.467 4.467 0 01-.867-2.63c0-2.672 2.428-4.846 5.413-4.846 2.985 0 5.413 2.174 5.413 4.846s-2.428 4.846-5.413 4.846c-.48 0-.95-.055-1.403-.164l1.348-5.271a.964.964 0 00-1.866-.478L7.33 22.038c-.12.47.128.957.58 1.135 1.398.549 2.873.827 4.386.827 6.617 0 12-5.383 12-12s-5.383-12-12-12z" fill="#131429"/></g><defs><clipPath id="clip0"><path d="M.296 0h24v24h-24V0z" fill="#fff"/></clipPath></defs></svg>