<svg width="24" height="24" fill="none" xmlns="http://www.w3.org/2000/svg"><path d="M20.49 20.49c4.68-4.68 4.68-12.3 0-16.98s-12.3-4.68-16.98 0-4.68 12.3 0 16.98 12.3 4.68 16.98 0zM4.357 4.357c4.216-4.215 11.07-4.215 15.286 0 4.215 4.216 4.215 11.07 0 15.286-4.216 4.215-11.07 4.215-15.286 0-4.215-4.216-4.21-11.07 0-15.286z" fill="#131429"/><path d="M12 16.494a.603.603 0 00.602-.602v-3.295h3.295a.603.603 0 00.602-.602.593.593 0 00-.597-.597h-3.295V8.103a.593.593 0 00-.597-.597.593.593 0 00-.598.597v3.295H8.117a.593.593 0 00-.597.597c0 .333.27.602.597.598h3.295v3.294a.582.582 0 00.588.607z" fill="#131429"/></svg>