<svg width="25" height="25" fill="none" xmlns="http://www.w3.org/2000/svg"><g clip-path="url(#clip0)"><path d="M21.094 12.762c-1.738-2.156-5.011-4.724-10.783-4.944V3.825a.614.614 0 00-.343-.556.593.593 0 00-.639.08L.24 10.991a.62.62 0 00-.22.47c0 .185.079.356.216.47l9.09 7.672c.181.15.427.185.638.08a.61.61 0 00.343-.555v-3.979c3.77.015 9.531.3 12.59 5.8a.598.598 0 001.123-.3c.005-2.057-.766-5.204-2.925-7.887zM9.707 13.923a.596.596 0 00-.427.18.62.62 0 00-.176.436v3.288l-7.534-6.36 7.539-6.341v3.288c0 .335.265.61.593.615 8.638.085 11.858 5.455 12.796 9.228-3.72-4.329-9.291-4.334-12.79-4.334z" fill="#131429"/></g><defs><clipPath id="clip0"><path d="M.019 0h24v24.47h-24V0z" fill="#fff"/></clipPath></defs></svg>