<svg width="25" height="24" fill="none" xmlns="http://www.w3.org/2000/svg"><g clip-path="url(#clip0)" fill="#131429"><path d="M12.019 24c6.617 0 12-5.383 12-12s-5.383-12-12-12-12 5.383-12 12 5.383 12 12 12zm0-22.801C17.975 1.199 22.82 6.044 22.82 12s-4.845 10.801-10.801 10.801S1.219 17.956 1.219 12s4.844-10.801 10.8-10.801z"/><path d="M6.807 12.602h8.976l-2.35 2.35a.596.596 0 000 .846.6.6 0 00.426.176.596.596 0 00.426-.176l3.372-3.372a.597.597 0 000-.847l-3.372-3.372a.597.597 0 00-.847 0 .597.597 0 000 .847l2.35 2.349H6.806a.601.601 0 00-.602.602c0 .333.27.597.602.597z"/></g><defs><clipPath id="clip0"><path d="M.019 0h24v24h-24V0z" fill="#fff"/></clipPath></defs></svg>