<svg width="24" height="24" fill="none" xmlns="http://www.w3.org/2000/svg"><g clip-path="url(#clip0)"><path d="M23.79 22.302l-5.832-5.711a9.86 9.86 0 002.511-6.57C20.47 4.49 15.877 0 10.236 0 4.59 0 .003 4.497.003 10.02s4.592 10.02 10.233 10.02a10.31 10.31 0 006.71-2.46l5.833 5.712a.73.73 0 00.506.208.709.709 0 00.505-.208.694.694 0 000-.99zM1.434 10.02c0-4.752 3.949-8.613 8.797-8.613 4.853 0 8.796 3.866 8.796 8.613s-3.943 8.619-8.796 8.619c-4.848 0-8.797-3.867-8.797-8.619z" fill="#131429"/></g><defs><clipPath id="clip0"><path d="M0 0h24v23.5H0V0z" fill="#fff"/></clipPath></defs></svg>