<svg width="24" height="24" fill="none" xmlns="http://www.w3.org/2000/svg"><path d="M12.7 11.698V.675C12.7.3 12.4 0 12.024 0c-.375 0-.675.3-.675.675v11.023a3.43 3.43 0 00-2.748 3.358 3.43 3.43 0 002.748 3.357v4.907c0 .375.3.675.675.675.375 0 .675-.3.675-.675v-4.907a3.43 3.43 0 002.748-3.357 3.43 3.43 0 00-2.748-3.358zm-.675 5.431a2.075 2.075 0 010-4.147 2.075 2.075 0 010 4.147zM4.44 6.041V.675C4.44.3 4.14 0 3.765 0c-.375 0-.674.3-.674.675V6.04A3.43 3.43 0 00.342 9.4a3.43 3.43 0 002.749 3.358V23.32c0 .375.3.675.674.675.375 0 .675-.3.675-.675V12.752a3.43 3.43 0 002.748-3.358A3.425 3.425 0 004.44 6.041zm-.675 5.432a2.075 2.075 0 01-2.074-2.074 2.075 2.075 0 014.147 0 2.078 2.078 0 01-2.073 2.074zM20.91 6.041V.675c0-.375-.3-.675-.675-.675-.375 0-.675.3-.675.675V6.04a3.43 3.43 0 00-2.748 3.36 3.43 3.43 0 002.748 3.358v10.568c0 .375.3.675.675.675.375 0 .675-.3.675-.675V12.752a3.43 3.43 0 002.748-3.358 3.42 3.42 0 00-2.748-3.353zm-.675 5.432a2.075 2.075 0 01-2.074-2.074 2.075 2.075 0 014.147 0 2.075 2.075 0 01-2.073 2.074z" fill="#131429"/></svg>