<svg width="24" height="25" fill="none" xmlns="http://www.w3.org/2000/svg"><g clip-path="url(#clip0)"><path d="M21.6 21.153L20.226 5.375a.667.667 0 00-.658-.616h-2.827C16.701 2.127 14.591 0 12 0 9.409 0 7.298 2.127 7.259 4.759H4.432a.663.663 0 00-.658.616L2.4 21.153c0 .02-.005.04-.005.06 0 1.796 1.615 3.258 3.602 3.258h12.005c1.988 0 3.603-1.462 3.603-3.258 0-.02 0-.04-.005-.06zM12 1.35c1.86 0 3.377 1.521 3.416 3.408H8.584C8.624 2.872 10.14 1.351 12 1.351zm6.002 21.768H5.997c-1.246 0-2.257-.84-2.277-1.876L5.036 6.115h2.218v2.052c0 .375.294.675.662.675.369 0 .663-.3.663-.675V6.115h6.837v2.052c0 .375.294.675.662.675.369 0 .663-.3.663-.675V6.115h2.218l1.32 15.128c-.019 1.036-1.035 1.877-2.277 1.877z" fill="#131429"/></g><defs><clipPath id="clip0"><path d="M0 0h24v24.47H0V0z" fill="#fff"/></clipPath></defs></svg>