<svg width="24" height="24" fill="none" xmlns="http://www.w3.org/2000/svg"><g clip-path="url(#clip0)"><path d="M7.205 15.498H20.43c1.5 0 2.723-1.2 2.723-2.67V7.312c0-.01 0-.02-.005-.029 0-.01-.005-.024-.005-.034 0-.01-.005-.02-.005-.029-.005-.01-.005-.02-.01-.034-.005-.01-.005-.02-.01-.029-.005-.01-.005-.02-.01-.029a.223.223 0 01-.014-.034.1.1 0 00-.015-.024l-.015-.029c-.005-.01-.01-.014-.015-.024-.005-.01-.014-.02-.02-.03a.084.084 0 00-.02-.023c-.004-.01-.014-.015-.019-.024-.005-.01-.015-.015-.02-.025-.005-.01-.015-.014-.02-.019l-.024-.024c-.01-.005-.015-.015-.025-.02-.01-.004-.02-.014-.03-.019-.01-.005-.014-.01-.024-.014a.105.105 0 01-.03-.02l-.03-.014a6.835 6.835 0 00-.058-.03c-.01-.004-.02-.004-.03-.009a.093.093 0 00-.035-.01c-.01 0-.02-.005-.024-.005-.015-.004-.025-.004-.04-.004-.005 0-.01-.005-.02-.005L5.82 4.454V2.161c0-.024 0-.048-.005-.068 0-.005 0-.01-.005-.02 0-.014-.005-.028-.005-.043-.005-.014-.005-.024-.01-.038 0-.01-.005-.015-.005-.025l-.014-.043c0-.005-.005-.015-.005-.02a.144.144 0 00-.02-.038c-.005-.005-.005-.015-.01-.02a.101.101 0 00-.02-.029c-.005-.01-.01-.014-.014-.024-.005-.01-.01-.014-.015-.024-.005-.01-.015-.02-.02-.029l-.015-.014-.03-.03-.014-.014a.213.213 0 00-.035-.029c-.005-.005-.014-.01-.02-.015-.01-.01-.02-.014-.029-.024a.278.278 0 00-.04-.024c-.004-.005-.01-.005-.014-.01-.02-.01-.045-.019-.064-.029L1.774.051A.67.67 0 00.901.4a.648.648 0 00.355.856l3.226 1.335v14.31c0 1.355 1.036 2.477 2.373 2.646a2.6 2.6 0 00-.385 1.355c0 1.456 1.209 2.636 2.688 2.636 1.48 0 2.689-1.185 2.689-2.636 0-.484-.134-.943-.37-1.33h5.988c-.237.391-.37.846-.37 1.33 0 1.456 1.208 2.636 2.688 2.636 1.48 0 2.688-1.185 2.688-2.636s-1.208-2.637-2.688-2.637H7.205c-.77 0-1.39-.614-1.39-1.364v-1.77c.404.232.882.367 1.39.367zm3.315 5.4c0 .734-.612 1.33-1.357 1.33s-1.356-.6-1.356-1.33c0-.731.611-1.331 1.356-1.331.745 0 1.357.595 1.357 1.33zm10.624 0c0 .734-.611 1.33-1.356 1.33-.745 0-1.357-.6-1.357-1.33 0-.731.612-1.331 1.357-1.331s1.356.595 1.356 1.33zm-.715-6.706H7.205c-.77 0-1.39-.614-1.39-1.364V5.77L21.82 7.932v4.891a1.38 1.38 0 01-1.39 1.37z" fill="#131429"/></g><defs><clipPath id="clip0"><path d="M0 0h24v23.538H0V0z" fill="#fff"/></clipPath></defs></svg>