<svg width="25" height="24" fill="none" xmlns="http://www.w3.org/2000/svg"><g clip-path="url(#clip0)" fill="#131429"><path d="M12.058 0c-6.617 0-12 5.383-12 12s5.383 12 12 12c6.616 0 12-5.383 12-12s-5.384-12-12-12zm0 22.801C6.102 22.801 1.257 17.956 1.257 12s4.845-10.801 10.8-10.801C18.015 1.199 22.86 6.044 22.86 12s-4.845 10.801-10.801 10.801z"/><path d="M15.2 9.078l-4.6 4.576-1.68-1.688a.601.601 0 00-.846-.005.601.601 0 00-.005.846l2.1 2.115a.596.596 0 00.846 0l5.026-4.997a.597.597 0 10-.842-.847z"/></g><defs><clipPath id="clip0"><path d="M.058 0h24v24h-24V0z" fill="#fff"/></clipPath></defs></svg>