<svg width="24" height="24" fill="none" xmlns="http://www.w3.org/2000/svg"><g clip-path="url(#clip0)"><path d="M22.516 12.085a.683.683 0 00-.323-.462c-3.902-2.326-6.191-2.808-7.865-3.158-.215-.046-.426-.087-.626-.133l-.724-5.95A2.433 2.433 0 0010.555 0a2.414 2.414 0 00-2.423 2.3c0 .026-.005.046-.005.072v3.5l-.057 8.549-.924-.714c-.18-.154-1.432-1.165-2.983-1.165-1.047 0-1.976.441-2.761 1.304a.689.689 0 00-.052.867c.067.093 1.658 2.32 4.153 4.59 1.479 1.34 2.968 2.412 4.426 3.188 1.858.985 3.675 1.494 5.405 1.509h.082c2.362 0 4.2-.78 5.463-2.315 2.813-3.42 1.684-9.349 1.637-9.6zm-2.71 8.727c-.986 1.201-2.464 1.807-4.39 1.807h-.071c-3.435-.026-6.73-2.361-8.887-4.317A31.663 31.663 0 012.844 14.4a2.108 2.108 0 011.325-.467c1.114 0 2.079.826 2.084.837.01.01.026.02.036.03l2.048 1.576a.696.696 0 001.12-.544l.066-9.949V2.398a1.037 1.037 0 012.074.03c0 .026 0 .057.005.082l.775 6.464a.692.692 0 00.509.585c.37.097.75.18 1.155.262 1.622.339 3.634.765 7.166 2.828.175 1.191.673 5.642-1.401 8.163z" fill="#131429"/></g><defs><clipPath id="clip0"><path d="M0 0h24v24H0V0z" fill="#fff"/></clipPath></defs></svg>