<svg width="25" height="24" fill="none" xmlns="http://www.w3.org/2000/svg"><path d="M22.967 3.454h-4.993V2.64A2.643 2.643 0 0015.334 0h-4.747a2.643 2.643 0 00-2.64 2.64v.814H2.955a.663.663 0 00-.666.666c0 .37.296.666.666.666h1.204v15.652A3.567 3.567 0 007.721 24H18.2a3.567 3.567 0 003.562-3.563V4.787h1.204c.37 0 .667-.297.667-.667a.663.663 0 00-.667-.666zM9.28 2.64c0-.72.587-1.308 1.307-1.308h4.747c.72 0 1.308.587 1.308 1.308v.814H9.28V2.64zm11.15 17.797a2.234 2.234 0 01-2.23 2.23H7.72a2.234 2.234 0 01-2.23-2.23V4.787h14.945v15.65h-.005z" fill="#131429"/><path d="M12.961 20.28c.37 0 .666-.297.666-.667V7.84a.663.663 0 00-.666-.666.663.663 0 00-.666.666v11.768c0 .37.296.672.666.672zm-4.347-.736c.37 0 .666-.296.666-.666V8.571a.663.663 0 00-.666-.666.663.663 0 00-.666.666v10.307c0 .37.3.666.666.666zm8.694 0c.37 0 .666-.296.666-.666V8.571a.663.663 0 00-.666-.666.663.663 0 00-.666.666v10.307c0 .37.296.666.666.666z" fill="#131429"/></svg>