<svg width="25" height="24" fill="none" xmlns="http://www.w3.org/2000/svg"><g clip-path="url(#clip0)" fill="#000"><path d="M24.134 5.13a.906.906 0 00-1.26-.228L20.06 6.853a.906.906 0 00-.388.784c.008.186.012.36.012.534 0 5.748-4.374 11.694-11.695 11.694-1.492 0-2.958-.284-4.328-.832l4.34-1.214a.906.906 0 10-.488-1.744L.958 17.909a.906.906 0 00-.245 1.635 13.46 13.46 0 007.277 2.133c5.08 0 8.26-2.4 10.035-4.413 2.206-2.503 3.471-5.817 3.471-9.093v-.108l2.41-1.673a.906.906 0 00.228-1.26zM2.295 4.847l9.128 4.627a.904.904 0 001.292-1.012 3.527 3.527 0 016.004-3.215.907.907 0 00.97.232l2.817-1.024a.906.906 0 10-.619-1.703l-2.293.833a5.361 5.361 0 00-3.447-1.262 5.342 5.342 0 00-5.31 4.823L3.114 3.232a.906.906 0 10-.819 1.615zm-.467 5.424l2.006.554a.905.905 0 10.482-1.746L2.31 8.525a.906.906 0 00-.482 1.746zm1.759 2.696a.906.906 0 00.034 1.81h.034l2-.076a.906.906 0 00-.068-1.81l-2 .076z"/></g><defs><clipPath id="clip0"><path d="M.296 0h24v24h-24V0z" fill="#fff"/></clipPath></defs></svg>