<svg width="25" height="24" fill="none" xmlns="http://www.w3.org/2000/svg"><g clip-path="url(#clip0)" fill="#131429"><path d="M12.98 23.538c6.617 0 12-5.28 12-11.769S19.598 0 12.98 0c-6.616 0-12 5.28-12 11.77 0 6.489 5.384 11.768 12 11.768zm0-22.362c5.956 0 10.801 4.752 10.801 10.593 0 5.842-4.845 10.594-10.8 10.594-5.956 0-10.802-4.752-10.802-10.594 0-5.841 4.846-10.593 10.801-10.593z"/><path d="M10.034 10.377l2.35-2.304v8.803c0 .327.268.59.601.59a.596.596 0 00.602-.59V8.078l2.35 2.304a.6.6 0 00.425.173.602.602 0 00.426-.173.577.577 0 000-.83l-3.372-3.307a.605.605 0 00-.847 0L9.197 9.552a.577.577 0 000 .83c.22.226.602.226.837-.005z"/></g><defs><clipPath id="clip0"><path d="M.98 0h24v23.538h-24V0z" fill="#fff"/></clipPath></defs></svg>