<svg width="24" height="24" fill="none" xmlns="http://www.w3.org/2000/svg"><path d="M19.519 6.702a6.928 6.928 0 00-2.167-3.973A6.933 6.933 0 0012.664.91a6.93 6.93 0 00-3.77 1.11 6.921 6.921 0 00-2.256 2.373 3.81 3.81 0 00-4.535 3.736c0 .272.029.533.078.79A5.295 5.295 0 000 13.187a5.66 5.66 0 001.436 3.746c.953 1.076 2.211 1.712 3.554 1.786h4.283c.37 0 .667-.296.667-.666a.663.663 0 00-.667-.666H5.05c-2.019-.124-3.716-2.043-3.716-4.205 0-1.397.75-2.7 1.959-3.405a.672.672 0 00.291-.81 2.477 2.477 0 013.168-3.173.67.67 0 00.834-.34A5.638 5.638 0 0112.67 2.23a5.59 5.59 0 015.591 5.073c.03.301.257.543.553.592 2.196.375 3.855 2.404 3.855 4.718 0 2.453-1.93 4.585-4.309 4.768h-3.637a.663.663 0 00-.666.666c0 .37.296.666.666.666h3.711c1.504-.108 2.91-.8 3.957-1.954A6.145 6.145 0 0024 12.614c-.005-2.768-1.895-5.23-4.481-5.912z" fill="#131429"/><path d="M16 13.819a.664.664 0 000-.943l-3.53-3.529a.653.653 0 00-.938 0l-3.528 3.529a.664.664 0 000 .943.67.67 0 00.469.197.65.65 0 00.468-.197l2.394-2.394v11c0 .37.296.667.666.667.37 0 .667-.296.667-.666V11.425l2.393 2.394a.658.658 0 00.938 0z" fill="#131429"/></svg>