<svg width="24" height="25" fill="none" xmlns="http://www.w3.org/2000/svg"><g clip-path="url(#clip0)" fill="#131429"><path d="M19.81 3.39H4.19C1.88 3.39 0 5.297 0 7.64v9.062c0 2.344 1.88 4.25 4.19 4.25h15.62c2.31 0 4.19-1.906 4.19-4.25V7.641c0-2.344-1.88-4.251-4.19-4.251zm2.473 13.312c0 1.383-1.109 2.509-2.472 2.509H4.189c-1.363 0-2.472-1.125-2.472-2.509V7.641c0-1.384 1.109-2.509 2.472-2.509h15.622c1.363 0 2.472 1.125 2.472 2.509v9.061z"/><path d="M16.608 11.444l-6.363-4.255a.848.848 0 00-.88-.04.873.873 0 00-.451.767v8.511c0 .32.173.615.451.767a.848.848 0 00.88-.04l6.363-4.256a.874.874 0 00.386-.727.874.874 0 00-.386-.727zM10.63 14.81V9.533l3.946 2.638-3.946 2.639z"/></g><defs><clipPath id="clip0"><path d="M0 0h24v24.343H0V0z" fill="#fff"/></clipPath></defs></svg>