<?xml version="1.0" standalone="no"?>
<!DOCTYPE svg PUBLIC "-//W3C//DTD SVG 1.1//EN" "http://www.w3.org/Graphics/SVG/1.1/DTD/svg11.dtd" >
<svg xmlns="http://www.w3.org/2000/svg" xmlns:xlink="http://www.w3.org/1999/xlink" version="1.1">
<metadata></metadata>
<defs>
<font id="public_sanslight" horiz-adv-x="584" >
<font-face units-per-em="1000" ascent="780" descent="-220" />
<missing-glyph horiz-adv-x="243" />
<glyph unicode="&#xfb01;" horiz-adv-x="655" d="M357 517v-58h-130v-459h-78v459h-113v58h113v82q0 124 122 124h91v-57h-79q-32 0 -44.5 -17t-12.5 -54v-78h131zM568 716v-86h-84v86h84zM565 517v-517h-78v517h78z" />
<glyph unicode="&#xfb02;" horiz-adv-x="683" d="M601 -6q-121 0 -121 136v613h77v-607q0 -80 58 -83h29v-52q-26 -7 -43 -7zM357 517v-58h-130v-459h-78v459h-113v58h113v82q0 124 122 124h91v-57h-79q-32 0 -44.5 -17t-12.5 -54v-78h131z" />
<glyph horiz-adv-x="27" />
<glyph horiz-adv-x="27" />
<glyph horiz-adv-x="333" />
<glyph unicode="&#xd;" horiz-adv-x="232" />
<glyph unicode=" "  horiz-adv-x="243" />
<glyph unicode="&#x09;" horiz-adv-x="243" />
<glyph unicode="&#xa0;" horiz-adv-x="243" />
<glyph unicode="!" horiz-adv-x="243" d="M167 723l-20 -550h-54l-20 550h94zM168 106v-106h-97v106h97z" />
<glyph unicode="&#x22;" horiz-adv-x="411" d="M173 723l-28 -221h-47l-27 221h102zM339 723l-28 -221h-47l-27 221h102z" />
<glyph unicode="#" horiz-adv-x="600" d="M558 442h-115l-23 -154h106v-51h-114l-36 -239l-52 8l35 231h-150l-36 -239l-52 8l35 231h-117v51h125l24 154h-117v51h125l35 231l51 -6l-34 -225h151l35 231l51 -6l-34 -225h107v-51zM367 288l24 154h-151l-23 -154h150z" />
<glyph unicode="$" horiz-adv-x="652" d="M590 184q0 -78 -60.5 -131t-159.5 -61v-99h-74v99q-97 8 -158.5 56.5t-74.5 131.5l82 7q16 -63 66 -95.5t124 -32.5q68 0 119.5 34.5t51.5 89.5q0 49 -29 80t-93 49l-126 35q-172 45 -173 177q0 84 60 140.5t158 65.5v103h74v-103q89 -11 142 -67t57 -132l-79 -6 q-24 139 -158 139q-69 0 -119.5 -35t-50.5 -98q0 -41 28.5 -65t104.5 -47l122 -36q166 -49 166 -199z" />
<glyph unicode="%" horiz-adv-x="895" d="M224 734q73 0 119.5 -56t46.5 -151t-46 -150.5t-120 -55.5q-75 0 -122 55.5t-47 150.5t47.5 151t121.5 56zM735 731l-486 -735h-56l488 735h54zM223 366q49 0 77.5 44.5t28.5 116.5q0 73 -28.5 117.5t-77.5 44.5t-78 -45t-29 -117t28.5 -116.5t78.5 -44.5zM670 404 q74 0 120.5 -56t46.5 -151t-46 -151t-121 -56q-74 0 -121 56t-47 151q0 94 47.5 150.5t120.5 56.5zM669 37q48 0 77.5 44.5t29.5 114.5q0 71 -29.5 116.5t-77.5 45.5q-47 0 -76.5 -45.5t-29.5 -116.5q0 -70 29 -114.5t77 -44.5z" />
<glyph unicode="&#x26;" horiz-adv-x="688" d="M299 734q79 0 135.5 -42.5t56.5 -110.5q0 -105 -174 -197l171 -200q62 84 68 200h75q-13 -124 -103 -247l116 -137h-91l-73 83q-104 -88 -223 -88q-101 0 -157.5 51t-56.5 136q0 69 41 120.5t127 97.5q-90 96 -90 178q0 67 50 111.5t128 44.5zM302 678 q-48 -1 -75.5 -28.5t-27.5 -67.5q0 -62 65 -133l17 -19q80 46 109 80t29 70q0 50 -34.5 74t-82.5 24zM252 352q-128 -71 -124 -170q2 -55 43.5 -89t100.5 -34q93 0 168 73z" />
<glyph unicode="'" horiz-adv-x="245" d="M173 723l-28 -221h-47l-27 221h102z" />
<glyph unicode="(" horiz-adv-x="294" d="M268 766q-117 -224 -117 -446q0 -211 108 -438h-52q-67 114 -100.5 216.5t-33.5 222.5q0 233 142 445h53z" />
<glyph unicode=")" horiz-adv-x="302" d="M22 766h52q143 -211 143 -445q0 -120 -33.5 -222.5t-100.5 -216.5h-52q108 230 108 438q0 219 -117 446z" />
<glyph unicode="*" horiz-adv-x="373" d="M266 402l-76 123l-80 -127l-49 33l93 116l-128 36l19 52l121 -48l-8 136h61l-8 -137l123 53l16 -51l-124 -40l89 -111z" />
<glyph unicode="+" horiz-adv-x="546" d="M483 395v-62h-178v-179h-62v178h-180v62h179v180h62v-179h179z" />
<glyph unicode="," horiz-adv-x="232" d="M43 -122l55 120l-41 2v103h106v-89l-80 -136h-40z" />
<glyph unicode="-" horiz-adv-x="376" d="M311 291v-64l-248 -1v64z" />
<glyph unicode="." horiz-adv-x="213" d="M153 107v-107h-97v107h97z" />
<glyph unicode="/" horiz-adv-x="342" d="M14 -44l250 767h63l-249 -767h-64z" />
<glyph unicode="0" horiz-adv-x="602" d="M301 733q117 0 184.5 -95.5t67.5 -277.5q0 -181 -67.5 -275.5t-185.5 -94.5t-184.5 94t-66.5 275q0 182 67.5 278t184.5 96zM302 59q83 0 124 72t41 229q0 305 -166 305q-168 0 -168 -305q0 -301 169 -301z" />
<glyph unicode="1" horiz-adv-x="397" d="M189 0v585h-143v54q94 0 129 19.5t37 64.5h58v-723h-81z" />
<glyph unicode="2" horiz-adv-x="599" d="M71 0v80q0 53 21 96t55 72t75 54t82 48t75 47t55 58.5t21 75.5q0 59 -41.5 95t-110.5 36q-74 0 -119 -41.5t-50 -110.5h-79q2 96 68.5 159.5t183.5 63.5q105 0 168 -55.5t63 -146.5q0 -53 -21 -95.5t-54.5 -71t-74 -52.5t-81 -46t-74 -46t-54.5 -57.5t-21 -75.5v-16h385 v-71h-472z" />
<glyph unicode="3" horiz-adv-x="613" d="M54 516q0 99 70 158t173 59q112 0 180 -49t68 -135q0 -55 -35.5 -99t-103.5 -67q75 -21 117 -68.5t42 -116.5q0 -96 -75.5 -153t-196.5 -55q-108 1 -177 59t-72 155h79q10 -69 56 -107t118 -38q83 0 133.5 38.5t50.5 100.5q0 68 -54.5 106t-139.5 39l-64 1v68l62 1 q74 1 125 40.5t51 92.5q0 50 -44 85t-120 35q-66 0 -114.5 -38.5t-49.5 -111.5h-79z" />
<glyph unicode="4" horiz-adv-x="618" d="M381 723h81v-461h122v-71h-122v-191h-77v191h-342v75zM118 262h265v355z" />
<glyph unicode="5" horiz-adv-x="641" d="M118 723h423l-2 -69h-352l-20 -250q64 67 176 67q101 0 171 -62t70 -172q0 -112 -70.5 -179.5t-187.5 -67.5q-98 0 -173.5 52t-101.5 137l71 24q26 -67 77.5 -106.5t122.5 -39.5q81 0 129.5 47.5t48.5 129.5q0 76 -50 123t-121 47q-52 0 -89.5 -15.5t-76.5 -61.5 q-4 -2 -7 0l-70 18z" />
<glyph unicode="6" horiz-adv-x="609" d="M326 739q89 0 153 -49t77 -133h-74q-15 54 -55.5 84.5t-99.5 30.5q-101 0 -151 -85t-42 -248q19 60 71.5 97.5t119.5 37.5q108 0 172.5 -62t64.5 -169q0 -111 -66 -178.5t-179 -67.5q-123 0 -195.5 96t-72.5 265q0 177 72 279t205 102zM316 408q-64 0 -115 -43.5 t-51 -103.5q-2 -87 45 -142.5t123 -55.5q70 0 115 49t45 127q0 79 -42 124t-120 45z" />
<glyph unicode="7" d="M44 723h498v-69q-96 -134 -181.5 -336.5t-101.5 -317.5h-85q22 123 95.5 306.5t185.5 347.5h-411v69z" />
<glyph unicode="8" horiz-adv-x="642" d="M321 736q105 0 172 -52t67 -143q0 -110 -116 -157q57 -11 102.5 -65.5t45.5 -116.5q0 -93 -73.5 -149t-197.5 -56q-123 0 -197 56t-74 149q0 62 45.5 116.5t102.5 65.5q-116 47 -116 157q0 91 67.5 143t171.5 52zM321 418q72 0 115 32.5t43 92.5t-44 96t-114 36t-114 -36 t-44 -96t43 -92.5t115 -32.5zM321 62q85 0 136 38t51 102t-51.5 104.5t-135.5 40.5t-135 -40.5t-51 -104.5t50.5 -102t135.5 -38z" />
<glyph unicode="9" horiz-adv-x="616" d="M286 -4q-89 0 -155.5 49.5t-79.5 132.5h77q13 -52 55 -83.5t101 -31.5q104 0 157.5 83.5t45.5 252.5q-17 -62 -70 -100.5t-123 -38.5q-108 0 -173.5 62t-65.5 171q0 111 65.5 178.5t178.5 67.5q123 0 195 -96t72 -265q0 -181 -72.5 -281.5t-207.5 -100.5zM300 328 q64 0 115 43.5t51 103.5q2 87 -45 142.5t-123 55.5q-70 0 -114 -48.5t-44 -127.5t41 -124t119 -45z" />
<glyph unicode=":" horiz-adv-x="213" d="M153 494v-106h-97v106h97zM153 109v-106h-97v106h97z" />
<glyph unicode=";" horiz-adv-x="230" d="M69 386v107h97v-107h-97zM56 -140l55 140h-38v106h97v-94l-79 -152h-35z" />
<glyph unicode="&#x3c;" horiz-adv-x="537" d="M474 223v-74l-411 161v74l412 164v-77l-316 -124z" />
<glyph unicode="=" horiz-adv-x="546" d="M483 492v-62l-420 -1v62zM483 272v-62l-420 -1v62z" />
<glyph unicode="&#x3e;" horiz-adv-x="537" d="M63 223l315 124l-315 124v77l411 -164v-74l-411 -161v74z" />
<glyph unicode="?" horiz-adv-x="527" d="M26 594q32 65 94 102t140 37q98 0 157.5 -48t59.5 -126q0 -40 -15 -76t-37 -61.5t-48.5 -54.5t-48.5 -54.5t-37 -61.5t-15 -76h-69q0 53 19.5 98.5t47.5 78.5t55.5 63.5t47 66t19.5 74.5q0 53 -37.5 84t-99.5 31q-51 0 -98 -29t-63 -71zM290 106v-106h-96v106h96z" />
<glyph unicode="@" horiz-adv-x="820" d="M655 -35q-100 -75 -229 -75q-173 0 -275 104.5t-102 259.5q0 162 109.5 276t281.5 114q65 0 125 -18.5t109.5 -55t79.5 -98t30 -140.5q0 -112 -53.5 -182.5t-135.5 -70.5q-72 0 -87 53q-4 10 -11 1q-51 -68 -136 -68q-57 0 -97 48t-40 124q0 95 53.5 160.5t134.5 65.5 q77 0 113 -63q5 -5 7 4l9 34h56l-37 -224q-7 -43 3 -60.5t37 -17.5q50 0 85 52t35 138q0 68 -24.5 120.5t-65.5 82.5t-89.5 45t-101.5 15q-151 0 -239 -96.5t-88 -238.5q0 -135 86 -222t241 -87q60 0 98 15.5t85 48.5zM293 242q0 -55 21 -86t60 -31q48 0 85.5 40.5 t45.5 97.5q8 66 -19 103.5t-70 37.5q-54 0 -88.5 -47t-34.5 -115z" />
<glyph unicode="A" horiz-adv-x="703" d="M44 0l263 723h91l262 -723h-81l-74 206h-305l-76 -206h-80zM221 280h262l-130 365z" />
<glyph unicode="B" horiz-adv-x="662" d="M96 0v723h225q129 0 196.5 -48t67.5 -140q0 -61 -31.5 -101.5t-104.5 -65.5q154 -32 154 -174q0 -194 -276 -194h-231zM174 400h163q32 0 60.5 6t54.5 19t41.5 39t15.5 61q0 65 -50 98.5t-136 33.5h-149v-257zM174 67h151q199 0 199 129q0 69 -51.5 102.5t-135.5 33.5 h-163v-265z" />
<glyph unicode="C" horiz-adv-x="692" d="M362 733q112 0 186.5 -61.5t84.5 -152.5l-83 -5q-13 68 -61 108.5t-127 40.5q-212 0 -212 -302q0 -301 218 -301q68 0 116.5 39t63.5 107l82 -9q-10 -89 -82 -148t-180 -59q-144 0 -224 99t-80 273q0 175 78.5 273t219.5 98z" />
<glyph unicode="D" horiz-adv-x="686" d="M96 723q95 0 155 -1q197 -2 287 -90.5t90 -265.5q0 -184 -95.5 -275t-291.5 -91h-145v723zM177 654v-585h63q151 0 228 69t77 226q0 158 -75 224t-226 66h-67z" />
<glyph unicode="E" horiz-adv-x="618" d="M96 0v723h445v-70h-366v-253h333v-70h-334v-258l378 -1v-71h-456z" />
<glyph unicode="F" horiz-adv-x="577" d="M96 723h440l-1 -70h-358v-254h325v-70h-325v-329h-81v723z" />
<glyph unicode="G" horiz-adv-x="731" d="M365 -10q-140 0 -220.5 98.5t-80.5 270.5q0 175 82.5 274.5t222.5 99.5q103 0 180.5 -63t84.5 -149l-85 -6q-11 64 -61 105.5t-120 41.5q-103 0 -161.5 -77.5t-58.5 -219.5q0 -151 59 -227t163 -76q89 0 140.5 57.5t53.5 124.5l2 69h-183v59h264v-372h-61v115 q-73 -125 -221 -125z" />
<glyph unicode="H" horiz-adv-x="699" d="M528 340h-354v-340h-78v723h78v-313h354v313h78v-723h-78v340z" />
<glyph unicode="I" horiz-adv-x="267" d="M96 723h78v-723h-78v723z" />
<glyph unicode="J" horiz-adv-x="378" d="M285 162q0 -87 -31.5 -129.5t-113.5 -42.5q-63 0 -115 24l8 76q4 -1 16.5 -6.5t20.5 -8.5t22.5 -6t29.5 -3q48 0 66.5 26.5t18.5 92.5v538h78v-561z" />
<glyph unicode="K" horiz-adv-x="669" d="M634 0h-91l-236 382l-129 -149v-233h-82v723h82v-386l340 386h95l-245 -283z" />
<glyph unicode="L" horiz-adv-x="559" d="M97 723h80v-651h349v-72h-430z" />
<glyph unicode="M" horiz-adv-x="867" d="M96 0v723h106l232 -619l236 619h104v-723h-81v593l-220 -593h-78l-218 587v-587h-81z" />
<glyph unicode="N" horiz-adv-x="737" d="M566 723h78v-723h-69l-401 590v-590h-78v723h73l397 -584v584z" />
<glyph unicode="O" horiz-adv-x="743" d="M372 -10q-145 0 -226.5 96.5t-81.5 272.5q0 178 82.5 276t226.5 98q143 0 224.5 -97.5t81.5 -275.5q0 -177 -81.5 -273.5t-225.5 -96.5zM374 60q219 0 219 299q0 304 -220 304q-108 0 -165.5 -75.5t-57.5 -228.5q0 -150 57.5 -224.5t166.5 -74.5z" />
<glyph unicode="P" horiz-adv-x="635" d="M96 0v723h239q119 0 192.5 -59t73.5 -167q0 -107 -70 -167t-185 -60h-169v-270h-81zM177 339h167q81 0 130 43.5t49 119.5q0 75 -49.5 114.5t-134.5 39.5h-162v-317z" />
<glyph unicode="Q" horiz-adv-x="727" d="M49 360q0 178 82 275.5t226 97.5t225.5 -97.5t81.5 -275.5q0 -237 -147 -326q37 -82 141 -87v-68q-144 0 -215 120q-49 -9 -86 -9q-143 0 -225.5 96t-82.5 274zM135 358q0 -298 222 -298t222 300q0 151 -57 227t-165 76t-165 -76.5t-57 -228.5z" />
<glyph unicode="R" horiz-adv-x="672" d="M601 0h-83l-136 320h-208v-320h-78v723h274q113 0 172 -50t59 -142q0 -146 -144 -196zM339 387q182 0 182 138q0 132 -158 132h-189v-270h165z" />
<glyph unicode="S" horiz-adv-x="688" d="M346 -10q-108 0 -188.5 50.5t-94.5 139.5l82 7q14 -62 69.5 -96t131.5 -34q84 0 137 34.5t53 91.5q0 104 -129 133l-149 35q-172 39 -173 173q0 92 72 150t185 58q119 0 187.5 -58t76.5 -143l-79 -6q-22 139 -185 139q-69 0 -121 -35t-52 -98q0 -42 29.5 -68t103.5 -44 l144 -35q172 -40 172 -200q0 -83 -73 -138.5t-199 -55.5z" />
<glyph unicode="T" horiz-adv-x="568" d="M15 650v73h538v-73h-223v-650h-78v650h-237z" />
<glyph unicode="U" horiz-adv-x="704" d="M612 243q0 -253 -258 -253q-134 0 -196 66t-62 198v469h82v-484q0 -180 176 -180q179 0 179 180v484h79v-480z" />
<glyph unicode="V" horiz-adv-x="635" d="M621 723l-257 -723h-97l-253 723h78l223 -635l229 635h77z" />
<glyph unicode="W" horiz-adv-x="954" d="M927 723l-210 -723h-77l-165 584l-167 -584h-75l-207 723h80l167 -602l171 602h63l170 -602l171 602h79z" />
<glyph unicode="X" horiz-adv-x="645" d="M619 0h-99l-202 306l-202 -306h-90l247 370l-237 353h99l187 -285l189 285h88l-232 -346z" />
<glyph unicode="Y" d="M575 723l-243 -414v-309h-78v309l-245 414h85l200 -343l196 343h85z" />
<glyph unicode="Z" horiz-adv-x="616" d="M53 0v46l404 608h-390v69h498v-44l-407 -609h405v-70h-510z" />
<glyph unicode="[" horiz-adv-x="294" d="M94 723h175v-53h-104l-1 -778h104v-53h-173z" />
<glyph unicode="\" horiz-adv-x="342" d="M262 -44l-249 767h63l250 -767h-64z" />
<glyph unicode="]" horiz-adv-x="310" d="M197 723l-1 -884h-173v53h104l-1 778h-104v53h175z" />
<glyph unicode="^" horiz-adv-x="470" d="M352 130l-119 302l-121 -301h-64l147 360q13 34 37 35t39 -35l148 -361h-67z" />
<glyph unicode="_" horiz-adv-x="508" d="M444 -49v-64h-381v63z" />
<glyph unicode="`" horiz-adv-x="283" d="M30 732l241 -96l-14 -42l-248 75z" />
<glyph unicode="a" horiz-adv-x="544" d="M217 -10q-77 0 -123 39.5t-46 108.5q0 87 59 128t190 44l99 3v43q0 52 -34.5 81.5t-91.5 29.5q-49 0 -85.5 -24.5t-45.5 -69.5h-71q5 67 60 110.5t145 43.5q95 0 147 -44.5t52 -122.5v-360h-67l-6 96q-53 -106 -182 -106zM238 49q57 0 107.5 37.5t50.5 82.5v92l-82 -1 q-100 -2 -145 -29t-45 -86q0 -45 31.5 -70.5t82.5 -25.5z" />
<glyph unicode="b" horiz-adv-x="589" d="M327 -10q-42 0 -75 11.5t-53 31t-30.5 34.5t-16.5 31l-8 -98h-60v743h78v-318q51 102 170 102q104 0 157 -73.5t53 -192.5q0 -127 -55 -199t-160 -72zM313 52q69 0 108.5 51.5t39.5 157.5q0 98 -38 150.5t-111 52.5q-37 0 -65 -11.5t-43 -27.5t-25 -38t-13 -37t-4 -30 v-120q1 -62 43 -105t108 -43z" />
<glyph unicode="c" horiz-adv-x="532" d="M281 527q79 0 135.5 -44t68.5 -122l-71 -2q-14 51 -48 77.5t-81 26.5q-75 0 -118.5 -56t-43.5 -149q0 -94 43.5 -150.5t118.5 -56.5q49 0 84 28t45 75h70q-13 -79 -69 -121.5t-134 -42.5q-106 0 -169.5 73.5t-63.5 192.5q0 121 63.5 196t169.5 75z" />
<glyph unicode="d" d="M262 -10q-104 0 -159 72t-55 199q0 119 53 192.5t156 73.5q68 0 110.5 -29.5t60.5 -61.5v307h78v-743h-61l-8 106q-39 -116 -175 -116zM275 52q66 0 108.5 41.5t44.5 99.5v132q-1 18 -8.5 38t-23 44.5t-47 40.5t-73.5 16q-73 0 -111.5 -52.5t-38.5 -150.5q0 -105 40 -157 t109 -52z" />
<glyph unicode="e" horiz-adv-x="549" d="M127 240q0 -83 40 -135t118 -52q106 0 137 95h75q-19 -78 -76.5 -118t-134.5 -40q-107 0 -172.5 70.5t-65.5 193.5q0 125 61.5 199t170.5 74q105 0 163 -67.5t58 -186.5v-33h-374zM127 296h298q0 76 -37.5 122.5t-108.5 46.5q-73 0 -112.5 -50.5t-39.5 -118.5z" />
<glyph unicode="f" horiz-adv-x="396" d="M357 517v-58h-130v-459h-78v459h-113v58h113v82q0 124 122 124h91v-57h-79q-32 0 -44.5 -17t-12.5 -54v-78h131z" />
<glyph unicode="g" horiz-adv-x="611" d="M290 -171q-120 0 -185.5 37t-65.5 101q0 26 14 49t29 34t34 22.5t20 11.5q-1 1 -9.5 6t-12 7t-10.5 8t-10 11t-6 13t-3 17q0 24 22.5 43.5t65.5 29.5q-95 49 -95 142q0 76 60 120t160 44q88 0 148 -46q9 4 34.5 14.5t55.5 23t37 15.5l-1 -78l-91 -18q19 -36 19 -75 q0 -70 -54 -115.5t-156 -45.5q-19 0 -26 1q-104 -3 -104 -39q0 -15 21.5 -21t79.5 -10q15 -1 56.5 -3.5t57.5 -3.5q83 -5 123.5 -41t40.5 -97q0 -73 -65.5 -115t-183.5 -42zM292 253q133 0 133 108q0 54 -36 83.5t-97 29.5q-64 0 -100 -30t-36 -83q0 -52 35.5 -80t100.5 -28 zM304 -118q158 0 158 94q0 74 -99 79l-152 10q-31 2 -62.5 -25t-31.5 -64q0 -94 187 -94z" />
<glyph unicode="h" d="M84 0v743h76v-300q21 36 63.5 59t101.5 23q77 0 128.5 -42.5t51.5 -108.5v-374h-78v357q0 48 -33 75t-89 27q-61 0 -102 -28t-41 -81v-350h-78z" />
<glyph unicode="i" horiz-adv-x="259" d="M172 716v-86h-84v86h84zM169 517v-517h-78v517h78z" />
<glyph unicode="j" horiz-adv-x="258" d="M177 716v-86h-85v86h85zM173 -31q0 -71 -30 -103t-104 -32q-25 0 -41 3t-20 5l-3 3v52l54 2q36 2 51 18.5t15 55.5v544h78v-548z" />
<glyph unicode="k" horiz-adv-x="562" d="M526 0h-85l-168 270l-111 -115v-155h-78v743h78v-497l257 271h92l-186 -194z" />
<glyph unicode="l" horiz-adv-x="287" d="M205 -6q-121 0 -121 136v613h77v-607q0 -80 58 -83h29v-52q-26 -7 -43 -7z" />
<glyph unicode="m" horiz-adv-x="868" d="M84 0v517h75v-73q50 83 154 83q46 0 89 -21.5t61 -60.5q24 38 66 60t92 22q30 0 57 -8t53.5 -27t42 -57.5t15.5 -92.5v-342h-78v337q0 127 -112 127q-51 0 -87.5 -28t-36.5 -88v-348h-78v367q0 45 -34 71t-77 26q-48 0 -86 -27.5t-38 -81.5v-355h-78z" />
<glyph unicode="n" d="M84 0v517h75v-73q50 81 165 81q79 0 130 -48.5t51 -137.5v-339h-78v332q0 61 -32.5 94t-88.5 33q-61 0 -102.5 -28t-41.5 -80v-351h-78z" />
<glyph unicode="o" horiz-adv-x="560" d="M280 -10q-109 0 -170.5 73t-61.5 192q0 122 63 197t170 75q108 0 170 -75t62 -195t-62.5 -193.5t-170.5 -73.5zM282 53q76 0 114.5 56t38.5 149t-39 149.5t-115 56.5t-115.5 -56.5t-39.5 -149.5q0 -91 40 -148t116 -57z" />
<glyph unicode="p" horiz-adv-x="588" d="M84 -161v678h77v-73q62 83 163 83q95 0 156 -67t61 -194q0 -128 -64 -202t-167 -74q-89 0 -148 81v-232h-78zM299 52q73 0 119.5 56.5t46.5 154.5t-46.5 149.5t-114.5 51.5q-59 0 -100.5 -39.5t-41.5 -83.5v-210q59 -79 137 -79z" />
<glyph unicode="q" d="M505 -161h-78v245q-44 -94 -152 -94q-103 0 -165 73.5t-62 202.5q0 127 60.5 194t155.5 67q43 0 81.5 -17.5t49 -27.5t33.5 -33v68h77v-678zM292 49q65 0 100 46.5t35 107.5v129q0 53 -40 94t-101 41q-68 0 -113 -51.5t-45 -151.5q0 -99 45.5 -157t118.5 -58z" />
<glyph unicode="r" horiz-adv-x="374" d="M84 0v517h74v-93q21 45 71 74t120 29v-76q-95 4 -141 -28.5t-46 -90.5v-332h-78z" />
<glyph unicode="s" horiz-adv-x="509" d="M259 -10q-84 0 -142 40.5t-68 116.5h74q10 -47 47 -71t89 -24q56 0 89.5 22.5t33.5 62.5q0 58 -77 77l-105 29q-65 17 -99 48t-34 84q0 72 53 112t139 40q81 0 131.5 -38.5t52.5 -106.5h-72q-5 38 -35 60.5t-78 22.5t-83 -20t-35 -66q0 -28 21.5 -44.5t66.5 -28.5 l109 -28q61 -17 88.5 -54.5t27.5 -82.5q0 -71 -55.5 -111t-138.5 -40z" />
<glyph unicode="t" horiz-adv-x="358" d="M307 459h-117v-330q0 -43 14 -56t54 -13h53v-54q-21 -8 -73 -8q-72 0 -100 30t-28 95v336h-84v58h86l15 149h63v-149h117v-58z" />
<glyph unicode="u" horiz-adv-x="580" d="M274 -9q-75 0 -134.5 44.5t-59.5 133.5v350h78v-343q0 -63 39.5 -92.5t90.5 -29.5q57 0 96 33t39 95v337h79l-1 -518h-63l-8 98q-14 -53 -57.5 -81t-98.5 -27z" />
<glyph unicode="v" horiz-adv-x="502" d="M474 517l-183 -517h-79l-184 517h74l144 -421h10l145 421h73z" />
<glyph unicode="w" horiz-adv-x="782" d="M750 517l-152 -517h-85l-123 400l-117 -400h-84l-158 517h74l124 -418h9l122 418h61l128 -417h9l118 417h74z" />
<glyph unicode="x" horiz-adv-x="558" d="M523 0h-87l-157 212l-157 -212h-87l200 269l-184 248h87l141 -191l142 191h87l-184 -248z" />
<glyph unicode="y" horiz-adv-x="530" d="M125 -165q-26 0 -44.5 2.5t-24.5 5.5l-6 3v51h54q49 -1 71.5 15t33.5 43l20 55l-201 507h79l160 -416l159 416h76l-220 -566q-26 -64 -64.5 -90t-92.5 -26z" />
<glyph unicode="z" horiz-adv-x="502" d="M48 0v52l304 410h-283v55h377v-53l-304 -408h310v-56h-404z" />
<glyph unicode="{" horiz-adv-x="312" d="M121 625q0 45 33.5 71.5t88.5 26.5h44v-53h-33q-36 0 -49 -12.5t-13 -38.5v-217q-1 -53 -28.5 -82.5t-68.5 -33.5q-6 -1 -6.5 -3t6.5 -3q41 -3 68.5 -31.5t28.5 -84.5v-219q0 -29 13.5 -41t48.5 -12h33v-53h-42q-58 0 -91 27.5t-33 73.5v220q0 39 -30 68t-83 29v51 q56 1 84.5 29t28.5 73v215z" />
<glyph unicode="|" horiz-adv-x="252" d="M159 -161h-62l-1 987h63v-987z" />
<glyph unicode="}" horiz-adv-x="318" d="M187 625v-215q0 -45 28.5 -73t84.5 -29v-51q-53 0 -83 -29t-30 -68v-220q0 -46 -33 -73.5t-91 -27.5h-42v53h33q35 0 48.5 12t13.5 41v219q1 56 28.5 84.5t68.5 31.5q7 1 6.5 3t-6.5 3q-41 4 -68.5 33.5t-28.5 82.5v217q0 26 -13 38.5t-49 12.5h-33v53h44 q55 0 88.5 -26.5t33.5 -71.5z" />
<glyph unicode="~" horiz-adv-x="556" d="M495 372q-38 -59 -122 -59q-41 0 -96 24.5t-88 24.5q-58 0 -107 -53l-23 47q31 31 60 47t69 16q38 0 95 -25.5t90 -25.5q58 0 98 52z" />
<glyph unicode="&#xa1;" horiz-adv-x="242" d="M168 411h-97v106h97v-106zM167 -161h-94l20 504h54z" />
<glyph unicode="&#xa2;" horiz-adv-x="538" d="M290 162q49 0 84 28t45 75h70q-12 -71 -58.5 -112.5t-114.5 -49.5v-103h-61v103q-93 10 -147.5 82t-54.5 182q0 111 54.5 184.5t147.5 84.5v87h61v-87q68 -8 115.5 -51t58.5 -113l-71 -2q-14 51 -48 77.5t-81 26.5q-75 0 -118.5 -56t-43.5 -149q0 -94 43.5 -150.5 t118.5 -56.5z" />
<glyph unicode="&#xa3;" horiz-adv-x="604" d="M14 0v68h38q41 0 66.5 37t25.5 110q0 53 -12 130h-101v53h92l-17 81q-24 113 37.5 183.5t161.5 70.5q67 0 122 -32t75 -80l-70 -26q-35 69 -117 69q-56 0 -92.5 -31.5t-36.5 -86.5q0 -64 25 -147h166v-53h-158q10 -72 8 -117q-3 -100 -58 -160h184q53 0 84.5 18.5 t48.5 63.5l68 -19q-46 -132 -197 -132h-343z" />
<glyph unicode="&#xa4;" horiz-adv-x="529" d="M263 180q-57 0 -102 31q-8 5 -14 -2l-52 -53l-40 43l58 56q-34 49 -34 109q0 56 30 100q4 9 -1 14l-52 52l41 41l58 -59q46 35 107 35q56 0 101 -31q6 -5 12 1l53 53l40 -41l-58 -58q35 -49 35 -107t-31 -100q-3 -8 1 -12l54 -52l-40 -41l-58 58q-51 -37 -108 -37z M264 243q51 0 85.5 35.5t34.5 85.5q0 49 -34.5 85.5t-85.5 36.5t-86.5 -36.5t-35.5 -85.5q0 -50 35 -85.5t87 -35.5z" />
<glyph unicode="&#xa5;" horiz-adv-x="599" d="M591 723l-234 -387h143v-52h-153v-92h153v-52h-153v-140h-89v139h-154v52h154v92h-154v52h135l-231 388h101l198 -342l200 342h84z" />
<glyph unicode="&#xa6;" horiz-adv-x="252" d="M159 427h-62l-1 399h63v-399zM159 -161h-62l-1 399h63v-399z" />
<glyph unicode="&#xa7;" horiz-adv-x="484" d="M250 -70q-69 0 -127 32t-84 83l53 29q54 -87 159 -87q52 0 84 20t32 57q0 28 -22.5 51t-78.5 46l-89 34q-125 48 -125 142q0 45 27 78.5t73 51.5q-56 29 -77 60.5t-21 69.5q0 59 51 97.5t133 38.5q62 0 111.5 -28.5t77.5 -71.5l-54 -29q-58 72 -131 72q-53 0 -83.5 -20 t-30.5 -53q0 -51 84 -85l84 -33q76 -31 110 -69.5t34 -90.5q0 -80 -92 -127q94 -52 94 -128q0 -62 -52.5 -101t-139.5 -39zM273 231q39 -3 67.5 22t27.5 61q-1 35 -19 57.5t-68 42.5l-57 22q-42 -3 -72.5 -29.5t-30.5 -59.5q0 -29 18.5 -48t71.5 -41z" />
<glyph unicode="&#xa8;" horiz-adv-x="244" d="M0 630v86h85v-86h-85zM159 630v86h84v-86h-84z" />
<glyph unicode="&#xa9;" horiz-adv-x="813" d="M406 -10q-155 0 -263.5 108.5t-108.5 263.5q0 153 109 262t263 109q153 0 262 -109t109 -262q0 -155 -109 -263.5t-262 -108.5zM406 47q130 0 220.5 87.5t90.5 227.5q0 139 -91 227t-220 88q-132 0 -222 -88t-90 -227q0 -141 89.5 -228t222.5 -87zM408 574 q103 0 163 -107l-60 -17q-41 72 -100 72q-55 0 -89 -42.5t-34 -113.5q0 -73 34.5 -115.5t90.5 -42.5q73 0 113 77l47 -19q-60 -110 -165 -110q-84 0 -137 57.5t-53 150.5t53.5 151.5t136.5 58.5z" />
<glyph unicode="&#xaa;" horiz-adv-x="404" d="M156 396q-51 0 -79.5 24t-28.5 66q0 96 160 108l59 5v24q0 65 -76 65q-56 0 -86 -49l-49 15q36 77 139 77q63 0 95 -28.5t32 -80.5v-116q0 -36 4 -67l7 -37h-59l-7 44q-53 -50 -111 -50zM174 437q39 0 68 26q25 22 25 43v55l-49 -4q-112 -7 -112 -68q0 -24 18.5 -38 t49.5 -14z" />
<glyph unicode="&#xab;" horiz-adv-x="443" d="M112 251l105 -179h-45l-134 179l134 187h46zM285 251l105 -179h-45l-135 179l135 187h46z" />
<glyph unicode="&#xac;" horiz-adv-x="546" d="M63 394l420 1v-204h-66l-1 142l-353 -1v62z" />
<glyph unicode="&#xad;" horiz-adv-x="376" d="M311 291v-64l-248 -1v64z" />
<glyph unicode="&#xae;" horiz-adv-x="535" d="M267 268q-97 0 -165 67.5t-68 164.5t68 165t165 68q96 0 164 -68t68 -165t-68 -164.5t-164 -67.5zM267 311q83 0 135 51.5t52 137.5t-52 138t-135 52q-84 0 -136 -52t-52 -138t52 -137.5t136 -51.5zM179 383v231h103q77 0 77 -58q0 -43 -48 -62l44 -111h-42l-40 108h-55 v-108h-39zM218 523h58q43 0 43 29q0 30 -46 30h-55v-59z" />
<glyph unicode="&#xaf;" horiz-adv-x="310" d="M296 709v-58h-284v58h284z" />
<glyph unicode="&#xb0;" horiz-adv-x="460" d="M383 682q0 -67 -44 -110.5t-110 -43.5q-67 0 -110.5 43.5t-43.5 110.5t43.5 111t110.5 44q66 0 110 -44t44 -111zM324 681q0 45 -26.5 73t-70.5 28t-70.5 -28t-25.5 -73t27 -73t70 -28t70 28t26 73z" />
<glyph unicode="&#xb1;" horiz-adv-x="546" d="M304 469h179v-62h-179v-179h-61v178h-180v62h179v180h62v-179zM63 65v62h420v-62h-420z" />
<glyph unicode="&#xb2;" horiz-adv-x="355" d="M34 384v50q0 45 25 79t60 55t70.5 40.5t60.5 47t25 62.5q0 37 -26 60t-70 23q-47 0 -75 -26.5t-31 -69.5h-49q1 60 42.5 100t115.5 40q66 0 105.5 -35t39.5 -92q0 -45 -24.5 -78.5t-59.5 -54t-70.5 -39t-60 -45.5t-24.5 -62v-10h242v-45h-296z" />
<glyph unicode="&#xb3;" horiz-adv-x="392" d="M32 708q0 63 43.5 100t108.5 37q71 0 114 -31t43 -85q0 -74 -88 -104q47 -13 73.5 -43t26.5 -73q0 -61 -47.5 -96.5t-123.5 -34.5q-68 1 -111.5 37t-45.5 97h50q6 -43 35 -67t74 -24q53 0 84.5 24t31.5 63q0 43 -34.5 67t-87.5 24l-40 1v43l39 1q47 1 79 25.5t32 58.5 q0 31 -28 53t-75 22q-42 0 -72.5 -24.5t-31.5 -70.5h-49z" />
<glyph unicode="&#xb4;" horiz-adv-x="283" d="M251 732l21 -63l-248 -75l-14 42z" />
<glyph unicode="&#xb5;" horiz-adv-x="588" d="M80 -165v695h80v-370q0 -38 32 -66.5t77 -28.5q80 0 160 93v372h80l-1 -530h-76v82q-51 -43 -86 -61t-74 -19q-70 -2 -112 34v-201h-80z" />
<glyph unicode="&#xb6;" horiz-adv-x="554" d="M476 673h-61v-756h-53v756h-49v-756h-54v380q-96 2 -153.5 61.5t-57.5 145.5q0 90 60 154.5t168 64.5h200v-50z" />
<glyph unicode="&#xb7;" horiz-adv-x="222" d="M162 415v-101h-106v101h106z" />
<glyph unicode="&#xb8;" horiz-adv-x="220" d="M205 -128q0 -36 -30 -56t-75 -20q-54 0 -89 24l14 36q28 -23 66 -23q55 0 55 38q0 42 -78 45q-9 0 -6 6l36 83h45l-24 -61q45 -3 65.5 -23.5t20.5 -48.5z" />
<glyph unicode="&#xb9;" horiz-adv-x="295" d="M95 380v368h-90v34q60 0 81.5 12.5t23.5 40.5h36v-455h-51z" />
<glyph unicode="&#xba;" horiz-adv-x="405" d="M202 732q71 0 113 -46.5t42 -122.5q0 -74 -41.5 -120t-113.5 -46t-113 46t-41 120q0 76 42 122.5t112 46.5zM202 688q-46 0 -70 -32.5t-24 -89.5q0 -59 24 -92t70 -33t70 33t24 92q0 57 -24 89.5t-70 32.5z" />
<glyph unicode="&#xbb;" horiz-adv-x="442" d="M155 251l-106 187h45l135 -187l-134 -179h-45zM328 251l-106 187h45l135 -187l-134 -179h-45z" />
<glyph unicode="&#xbc;" horiz-adv-x="896" d="M95 276v368h-90v34q60 0 81.5 12.5t23.5 40.5h36v-455h-51zM689 731l-486 -735h-55l487 735h54zM719 455h51v-290h77v-45h-77v-120h-49v120h-215v47zM554 165h166v223z" />
<glyph unicode="&#xbd;" horiz-adv-x="936" d="M95 276v368h-90v34q60 0 81.5 12.5t23.5 40.5h36v-455h-51zM689 731l-486 -735h-55l487 735h54zM592 0v50q0 45 25 79t60 55t70.5 40.5t60.5 47t25 62.5q0 37 -26 60t-70 23q-47 0 -75 -26.5t-31 -69.5h-49q1 60 42.5 100t115.5 40q66 0 105.5 -35t39.5 -92 q0 -45 -24.5 -78.5t-59.5 -54t-70.5 -39t-60 -45.5t-24.5 -62v-10h242v-45h-296z" />
<glyph unicode="&#xbe;" horiz-adv-x="993" d="M32 603q0 63 43.5 100t108.5 37q71 0 114 -31t43 -85q0 -74 -88 -104q47 -13 73.5 -43t26.5 -73q0 -61 -47.5 -96.5t-123.5 -34.5q-68 1 -111.5 37t-45.5 97h50q6 -43 35 -67t74 -24q53 0 84.5 24t31.5 63q0 43 -34.5 67t-87.5 24l-40 1v43l39 1q47 1 79 25.5t32 58.5 q0 31 -28 53t-75 22q-42 0 -72.5 -24.5t-31.5 -70.5h-49zM786 731l-486 -735h-55l487 735h54zM817 455h51v-290h77v-45h-77v-120h-49v120h-215v47zM652 165h166v223z" />
<glyph unicode="&#xbf;" horiz-adv-x="511" d="M219 411v106h97v-106h-97zM482 -32q-32 -65 -93.5 -102t-139.5 -37q-101 0 -159.5 48.5t-58.5 127.5q0 45 20.5 81t50 61t59.5 50.5t50.5 62.5t20.5 84h69q0 -53 -19.5 -95t-47 -68.5t-55 -51t-47 -55t-19.5 -67.5q0 -52 37 -83t99 -31q51 0 98 29t64 70z" />
<glyph unicode="&#xc0;" horiz-adv-x="703" d="M228 938l241 -96l-14 -42l-248 75zM44 0l263 723h91l262 -723h-81l-74 206h-305l-76 -206h-80zM221 280h262l-130 365z" />
<glyph unicode="&#xc1;" horiz-adv-x="703" d="M462 938l21 -63l-248 -75l-14 42zM44 0l263 723h91l262 -723h-81l-74 206h-305l-76 -206h-80zM221 280h262l-130 365z" />
<glyph unicode="&#xc2;" horiz-adv-x="703" d="M424 822l-71 66l-77 -66h-75l124 110h57l121 -110h-79zM44 0l263 723h91l262 -723h-81l-74 206h-305l-76 -206h-80zM221 280h262l-130 365z" />
<glyph unicode="&#xc3;" horiz-adv-x="703" d="M497 874q-36 -27 -82 -27q-28 0 -65 12.5t-58 12.5q-31 0 -68 -27l-16 43q39 35 80 35q25 0 65.5 -13.5t61.5 -13.5q30 0 67 26zM44 0l263 723h91l262 -723h-81l-74 206h-305l-76 -206h-80zM221 280h262l-130 365z" />
<glyph unicode="&#xc4;" horiz-adv-x="703" d="M229 835v86h85v-86h-85zM388 835v86h84v-86h-84zM44 0l263 723h91l262 -723h-81l-74 206h-305l-76 -206h-80zM221 280h262l-130 365z" />
<glyph unicode="&#xc5;" horiz-adv-x="703" d="M454 887q0 -43 -29.5 -72t-72.5 -29q-42 0 -71.5 30t-29.5 73q0 40 30 69t71 29q43 0 72.5 -29t29.5 -71zM406 887q0 24 -15.5 39t-39.5 15q-22 0 -38 -15.5t-16 -38.5t16 -39.5t38 -16.5q23 0 39 16.5t16 39.5zM44 0l263 723h91l262 -723h-81l-74 206h-305l-76 -206h-80 zM221 280h262l-130 365z" />
<glyph unicode="&#xc6;" horiz-adv-x="961" d="M895 69v-69h-447v209h-251l-117 -209h-80l404 723h478v-69h-346v-255h262v-68h-262v-262h359zM448 280v384l-219 -384h219z" />
<glyph unicode="&#xc7;" horiz-adv-x="692" d="M368 60q68 0 116.5 39t63.5 107l82 -9q-9 -84 -75.5 -142.5t-167.5 -63.5l-18 -47q45 -3 65.5 -23.5t20.5 -48.5q0 -36 -30 -56t-75 -20q-54 0 -89 24l14 36q28 -23 66 -23q55 0 55 38q0 42 -78 45q-9 0 -6 6l30 69q-132 9 -205 107t-73 264q0 175 78.5 273t219.5 98 q112 0 186.5 -61.5t84.5 -152.5l-83 -5q-13 68 -61 108.5t-127 40.5q-212 0 -212 -302q0 -301 218 -301z" />
<glyph unicode="&#xc8;" horiz-adv-x="618" d="M197 938l241 -96l-14 -42l-248 75zM96 0v723h445v-70h-366v-253h333v-70h-334v-258l378 -1v-71h-456z" />
<glyph unicode="&#xc9;" horiz-adv-x="618" d="M431 938l21 -63l-248 -75l-14 42zM96 0v723h445v-70h-366v-253h333v-70h-334v-258l378 -1v-71h-456z" />
<glyph unicode="&#xca;" horiz-adv-x="618" d="M391 822l-71 66l-76 -66h-75l124 110h57l121 -110h-80zM96 0v723h445v-70h-366v-253h333v-70h-334v-258l378 -1v-71h-456z" />
<glyph unicode="&#xcb;" horiz-adv-x="618" d="M198 835v86h85v-86h-85zM357 835v86h84v-86h-84zM96 0v723h445v-70h-366v-253h333v-70h-334v-258l378 -1v-71h-456z" />
<glyph unicode="&#xcc;" horiz-adv-x="267" d="M12 938l241 -96l-14 -42l-248 75zM96 723h78v-723h-78v723z" />
<glyph unicode="&#xcd;" horiz-adv-x="267" d="M246 938l21 -63l-248 -75l-14 42zM96 723h78v-723h-78v723z" />
<glyph unicode="&#xce;" horiz-adv-x="267" d="M206 822l-71 66l-76 -66h-75l124 110h57l121 -110h-80zM96 723h78v-723h-78v723z" />
<glyph unicode="&#xcf;" horiz-adv-x="267" d="M13 835v86h85v-86h-85zM172 835v86h84v-86h-84zM96 723h78v-723h-78v723z" />
<glyph unicode="&#xd0;" horiz-adv-x="695" d="M261 722q196 -2 286 -90.5t90 -265.5q0 -184 -95.5 -275t-291.5 -91h-144v330h-71v65h71v328q94 0 155 -1zM249 69q151 0 228.5 69t77.5 226q0 158 -75.5 224t-225.5 66h-67v-259h172v-65h-172v-261h62z" />
<glyph unicode="&#xd1;" horiz-adv-x="737" d="M516 874q-36 -27 -82 -27q-28 0 -65 12.5t-58 12.5q-31 0 -68 -27l-16 43q39 35 80 35q25 0 65.5 -13.5t61.5 -13.5q30 0 67 26zM566 723h78v-723h-69l-401 590v-590h-78v723h73l397 -584v584z" />
<glyph unicode="&#xd2;" horiz-adv-x="743" d="M250 938l241 -96l-14 -42l-248 75zM372 -10q-145 0 -226.5 96.5t-81.5 272.5q0 178 82.5 276t226.5 98q143 0 224.5 -97.5t81.5 -275.5q0 -177 -81.5 -273.5t-225.5 -96.5zM374 60q219 0 219 299q0 304 -220 304q-108 0 -165.5 -75.5t-57.5 -228.5q0 -150 57.5 -224.5 t166.5 -74.5z" />
<glyph unicode="&#xd3;" horiz-adv-x="743" d="M484 938l21 -63l-248 -75l-14 42zM372 -10q-145 0 -226.5 96.5t-81.5 272.5q0 178 82.5 276t226.5 98q143 0 224.5 -97.5t81.5 -275.5q0 -177 -81.5 -273.5t-225.5 -96.5zM374 60q219 0 219 299q0 304 -220 304q-108 0 -165.5 -75.5t-57.5 -228.5q0 -150 57.5 -224.5 t166.5 -74.5z" />
<glyph unicode="&#xd4;" horiz-adv-x="743" d="M444 822l-71 66l-76 -66h-75l124 110h57l121 -110h-80zM372 -10q-145 0 -226.5 96.5t-81.5 272.5q0 178 82.5 276t226.5 98q143 0 224.5 -97.5t81.5 -275.5q0 -177 -81.5 -273.5t-225.5 -96.5zM374 60q219 0 219 299q0 304 -220 304q-108 0 -165.5 -75.5t-57.5 -228.5 q0 -150 57.5 -224.5t166.5 -74.5z" />
<glyph unicode="&#xd5;" horiz-adv-x="743" d="M519 874q-36 -27 -82 -27q-28 0 -65 12.5t-58 12.5q-31 0 -68 -27l-16 43q39 35 80 35q25 0 65.5 -13.5t61.5 -13.5q30 0 67 26zM372 -10q-145 0 -226.5 96.5t-81.5 272.5q0 178 82.5 276t226.5 98q143 0 224.5 -97.5t81.5 -275.5q0 -177 -81.5 -273.5t-225.5 -96.5z M374 60q219 0 219 299q0 304 -220 304q-108 0 -165.5 -75.5t-57.5 -228.5q0 -150 57.5 -224.5t166.5 -74.5z" />
<glyph unicode="&#xd6;" horiz-adv-x="743" d="M250 835v86h85v-86h-85zM409 835v86h84v-86h-84zM372 -10q-145 0 -226.5 96.5t-81.5 272.5q0 178 82.5 276t226.5 98q143 0 224.5 -97.5t81.5 -275.5q0 -177 -81.5 -273.5t-225.5 -96.5zM374 60q219 0 219 299q0 304 -220 304q-108 0 -165.5 -75.5t-57.5 -228.5 q0 -150 57.5 -224.5t166.5 -74.5z" />
<glyph unicode="&#xd7;" horiz-adv-x="530" d="M467 522l-158 -158l158 -158l-45 -44l-157 157l-157 -157l-44 44l157 157l-158 158l44 44l158 -157l157 158z" />
<glyph unicode="&#xd8;" horiz-adv-x="744" d="M76 -13l-46 44l86 96q-53 88 -53 232q0 178 82 276t226 98q134 0 215 -86l80 88l46 -43l-87 -98q53 -94 53 -234q0 -176 -82 -273t-226 -97q-137 0 -214 85zM185 198l345 390q-53 76 -159 76q-207 0 -211 -282q-3 -105 25 -184zM372 60q202 0 208 273q3 109 -24 190 l-345 -390q54 -73 161 -73z" />
<glyph unicode="&#xd9;" horiz-adv-x="704" d="M232 938l241 -96l-14 -42l-248 75zM612 243q0 -253 -258 -253q-134 0 -196 66t-62 198v469h82v-484q0 -180 176 -180q179 0 179 180v484h79v-480z" />
<glyph unicode="&#xda;" horiz-adv-x="704" d="M465 938l21 -63l-248 -75l-14 42zM612 243q0 -253 -258 -253q-134 0 -196 66t-62 198v469h82v-484q0 -180 176 -180q179 0 179 180v484h79v-480z" />
<glyph unicode="&#xdb;" horiz-adv-x="704" d="M426 822l-71 66l-76 -66h-75l124 110h57l121 -110h-80zM612 243q0 -253 -258 -253q-134 0 -196 66t-62 198v469h82v-484q0 -180 176 -180q179 0 179 180v484h79v-480z" />
<glyph unicode="&#xdc;" horiz-adv-x="704" d="M232 835v86h85v-86h-85zM391 835v86h84v-86h-84zM612 243q0 -253 -258 -253q-134 0 -196 66t-62 198v469h82v-484q0 -180 176 -180q179 0 179 180v484h79v-480z" />
<glyph unicode="&#xdd;" d="M409 940l21 -63l-248 -75l-14 42zM575 723l-243 -414v-309h-78v309l-245 414h85l200 -343l196 343h85z" />
<glyph unicode="&#xde;" horiz-adv-x="656" d="M622 376q0 -105 -69.5 -157t-187.5 -52h-179v-167h-90v723h90v-151h168q121 0 194.5 -49.5t73.5 -146.5zM530 377q0 127 -180 127h-164v-268h170q174 0 174 141z" />
<glyph unicode="&#xdf;" horiz-adv-x="607" d="M317 723q86 0 127 -39t41 -97q0 -27 -8 -48t-27 -37t-35 -25.5t-47 -24.5q-37 -20 -49 -30.5t-12 -28.5t12 -26.5t47 -19.5q87 -32 119 -56q66 -48 66 -132q0 -80 -54.5 -124.5t-138.5 -44.5t-137 35l29 54q53 -31 101 -31q58 0 92 27.5t34 76.5q0 35 -20 59.5t-43.5 35 t-65.5 24.5q-24 9 -38.5 15.5t-32.5 19t-26.5 31t-8.5 43.5q0 36 20.5 60.5t66.5 49.5q3 2 16.5 10t17.5 10.5t14 10t14 13t10 14t8 18t2 20.5q0 36 -27 57.5t-75 21.5q-60 0 -96.5 -37t-36.5 -106v-522h-77v450h-69v59h68q1 97 58.5 155.5t160.5 58.5z" />
<glyph unicode="&#xe0;" horiz-adv-x="544" d="M151 732l241 -96l-14 -42l-248 75zM217 -10q-77 0 -123 39.5t-46 108.5q0 87 59 128t190 44l99 3v43q0 52 -34.5 81.5t-91.5 29.5q-49 0 -85.5 -24.5t-45.5 -69.5h-71q5 67 60 110.5t145 43.5q95 0 147 -44.5t52 -122.5v-360h-67l-6 96q-53 -106 -182 -106zM238 49 q57 0 107.5 37.5t50.5 82.5v92l-82 -1q-100 -2 -145 -29t-45 -86q0 -45 31.5 -70.5t82.5 -25.5z" />
<glyph unicode="&#xe1;" horiz-adv-x="544" d="M384 732l21 -63l-248 -75l-14 42zM217 -10q-77 0 -123 39.5t-46 108.5q0 87 59 128t190 44l99 3v43q0 52 -34.5 81.5t-91.5 29.5q-49 0 -85.5 -24.5t-45.5 -69.5h-71q5 67 60 110.5t145 43.5q95 0 147 -44.5t52 -122.5v-360h-67l-6 96q-53 -106 -182 -106zM238 49 q57 0 107.5 37.5t50.5 82.5v92l-82 -1q-100 -2 -145 -29t-45 -86q0 -45 31.5 -70.5t82.5 -25.5z" />
<glyph unicode="&#xe2;" horiz-adv-x="544" d="M345 616l-71 66l-76 -66h-75l124 110h57l121 -110h-80zM217 -10q-77 0 -123 39.5t-46 108.5q0 87 59 128t190 44l99 3v43q0 52 -34.5 81.5t-91.5 29.5q-49 0 -85.5 -24.5t-45.5 -69.5h-71q5 67 60 110.5t145 43.5q95 0 147 -44.5t52 -122.5v-360h-67l-6 96 q-53 -106 -182 -106zM238 49q57 0 107.5 37.5t50.5 82.5v92l-82 -1q-100 -2 -145 -29t-45 -86q0 -45 31.5 -70.5t82.5 -25.5z" />
<glyph unicode="&#xe3;" horiz-adv-x="544" d="M420 668q-36 -27 -82 -27q-28 0 -65 12.5t-58 12.5q-31 0 -68 -27l-16 43q39 35 80 35q25 0 65.5 -13.5t61.5 -13.5q30 0 67 26zM217 -10q-77 0 -123 39.5t-46 108.5q0 87 59 128t190 44l99 3v43q0 52 -34.5 81.5t-91.5 29.5q-49 0 -85.5 -24.5t-45.5 -69.5h-71 q5 67 60 110.5t145 43.5q95 0 147 -44.5t52 -122.5v-360h-67l-6 96q-53 -106 -182 -106zM238 49q57 0 107.5 37.5t50.5 82.5v92l-82 -1q-100 -2 -145 -29t-45 -86q0 -45 31.5 -70.5t82.5 -25.5z" />
<glyph unicode="&#xe4;" horiz-adv-x="544" d="M151 629v86h85v-86h-85zM310 629v86h84v-86h-84zM217 -10q-77 0 -123 39.5t-46 108.5q0 87 59 128t190 44l99 3v43q0 52 -34.5 81.5t-91.5 29.5q-49 0 -85.5 -24.5t-45.5 -69.5h-71q5 67 60 110.5t145 43.5q95 0 147 -44.5t52 -122.5v-360h-67l-6 96q-53 -106 -182 -106z M238 49q57 0 107.5 37.5t50.5 82.5v92l-82 -1q-100 -2 -145 -29t-45 -86q0 -45 31.5 -70.5t82.5 -25.5z" />
<glyph unicode="&#xe5;" horiz-adv-x="544" d="M376 681q0 -43 -29.5 -72t-72.5 -29q-42 0 -71.5 30t-29.5 73q0 40 30 69t71 29q43 0 72.5 -29t29.5 -71zM328 681q0 24 -15.5 39t-39.5 15q-22 0 -38 -15.5t-16 -38.5t16 -39.5t38 -16.5q23 0 39 16.5t16 39.5zM217 -10q-77 0 -123 39.5t-46 108.5q0 87 59 128t190 44 l99 3v43q0 52 -34.5 81.5t-91.5 29.5q-49 0 -85.5 -24.5t-45.5 -69.5h-71q5 67 60 110.5t145 43.5q95 0 147 -44.5t52 -122.5v-360h-67l-6 96q-53 -106 -182 -106zM238 49q57 0 107.5 37.5t50.5 82.5v92l-82 -1q-100 -2 -145 -29t-45 -86q0 -45 31.5 -70.5t82.5 -25.5z" />
<glyph unicode="&#xe6;" horiz-adv-x="919" d="M473 241q0 -74 50.5 -132.5t120.5 -58.5q59 0 94.5 24t67.5 66l53 -29q-69 -121 -223 -121q-120 0 -200 106q-4 4 -6 0q-27 -31 -49.5 -50.5t-68.5 -37.5t-101 -18q-77 0 -120 39t-43 106q0 153 245 171l105 8v40q0 54 -33 84.5t-94 30.5q-86 0 -145 -87l-65 24 q66 121 217 121q138 0 174 -97q61 97 185 97q106 0 170 -75.5t64 -209.5zM637 470q-69 0 -115.5 -48.5t-46.5 -127.5l318 -1q0 72 -44 124.5t-112 52.5zM398 262l-88 -6q-183 -14 -183 -117q0 -43 30 -68.5t82 -23.5q66 3 112.5 38.5t46.5 83.5v93z" />
<glyph unicode="&#xe7;" horiz-adv-x="532" d="M285 51q49 0 84 28t45 75h70q-12 -75 -62.5 -116.5t-121.5 -46.5l-18 -47q45 -3 65.5 -23.5t20.5 -48.5q0 -36 -30 -56t-75 -20q-54 0 -89 24l14 36q28 -23 66 -23q55 0 55 38q0 42 -78 45q-9 0 -6 6l30 69q-95 10 -151 82t-56 183q0 121 63.5 196t169.5 75 q79 0 135.5 -44t68.5 -122l-71 -2q-14 51 -48 77.5t-81 26.5q-75 0 -118.5 -56t-43.5 -149q0 -94 43.5 -150.5t118.5 -56.5z" />
<glyph unicode="&#xe8;" horiz-adv-x="549" d="M157 732l241 -96l-14 -42l-248 75zM127 240q0 -83 40 -135t118 -52q106 0 137 95h75q-19 -78 -76.5 -118t-134.5 -40q-107 0 -172.5 70.5t-65.5 193.5q0 125 61.5 199t170.5 74q105 0 163 -67.5t58 -186.5v-33h-374zM127 296h298q0 76 -37.5 122.5t-108.5 46.5 q-73 0 -112.5 -50.5t-39.5 -118.5z" />
<glyph unicode="&#xe9;" horiz-adv-x="549" d="M390 732l21 -63l-248 -75l-14 42zM127 240q0 -83 40 -135t118 -52q106 0 137 95h75q-19 -78 -76.5 -118t-134.5 -40q-107 0 -172.5 70.5t-65.5 193.5q0 125 61.5 199t170.5 74q105 0 163 -67.5t58 -186.5v-33h-374zM127 296h298q0 76 -37.5 122.5t-108.5 46.5 q-73 0 -112.5 -50.5t-39.5 -118.5z" />
<glyph unicode="&#xea;" horiz-adv-x="549" d="M351 616l-71 66l-76 -66h-75l124 110h57l121 -110h-80zM127 240q0 -83 40 -135t118 -52q106 0 137 95h75q-19 -78 -76.5 -118t-134.5 -40q-107 0 -172.5 70.5t-65.5 193.5q0 125 61.5 199t170.5 74q105 0 163 -67.5t58 -186.5v-33h-374zM127 296h298q0 76 -37.5 122.5 t-108.5 46.5q-73 0 -112.5 -50.5t-39.5 -118.5z" />
<glyph unicode="&#xeb;" horiz-adv-x="549" d="M157 629v86h85v-86h-85zM316 629v86h84v-86h-84zM127 240q0 -83 40 -135t118 -52q106 0 137 95h75q-19 -78 -76.5 -118t-134.5 -40q-107 0 -172.5 70.5t-65.5 193.5q0 125 61.5 199t170.5 74q105 0 163 -67.5t58 -186.5v-33h-374zM127 296h298q0 76 -37.5 122.5 t-108.5 46.5q-73 0 -112.5 -50.5t-39.5 -118.5z" />
<glyph unicode="&#xec;" horiz-adv-x="252" d="M3 732l241 -96l-14 -42l-248 75zM166 517v-517h-78v517h78z" />
<glyph unicode="&#xed;" horiz-adv-x="252" d="M237 732l21 -63l-248 -75l-15 42zM166 517v-517h-78v517h78z" />
<glyph unicode="&#xee;" horiz-adv-x="252" d="M198 616l-71 66l-76 -66h-75l124 110h57l121 -110h-80zM166 517v-517h-78v517h78z" />
<glyph unicode="&#xef;" horiz-adv-x="252" d="M4 629v86h85v-86h-85zM163 629v86h84v-86h-84zM166 517v-517h-78v517h78z" />
<glyph unicode="&#xf0;" horiz-adv-x="587" d="M539 256q0 -120 -66.5 -193t-180.5 -73q-109 0 -176.5 72t-67.5 184q0 114 67.5 187.5t171.5 73.5q79 0 126 -49q-43 93 -140 160l-155 -88l-22 37l138 76q-53 29 -114 52l52 39q57 -20 124 -55l102 57l20 -38l-82 -46q203 -138 203 -396zM295 49q72 0 118 56.5t46 143.5 t-46.5 143.5t-118.5 56.5t-119 -56.5t-47 -143.5t47 -143.5t120 -56.5z" />
<glyph unicode="&#xf1;" d="M448 668q-36 -27 -82 -27q-28 0 -65 12.5t-58 12.5q-31 0 -68 -27l-16 43q38 35 80 35q25 0 65.5 -13.5t61.5 -13.5q30 0 67 26zM84 0v517h75v-73q50 81 165 81q79 0 130 -48.5t51 -137.5v-339h-78v332q0 61 -32.5 94t-88.5 33q-61 0 -102.5 -28t-41.5 -80v-351h-78z" />
<glyph unicode="&#xf2;" horiz-adv-x="560" d="M159 732l241 -96l-14 -42l-248 75zM280 -10q-109 0 -170.5 73t-61.5 192q0 122 63 197t170 75q108 0 170 -75t62 -195t-62.5 -193.5t-170.5 -73.5zM282 53q76 0 114.5 56t38.5 149t-39 149.5t-115 56.5t-115.5 -56.5t-39.5 -149.5q0 -91 40 -148t116 -57z" />
<glyph unicode="&#xf3;" horiz-adv-x="560" d="M392 732l21 -63l-248 -75l-14 42zM280 -10q-109 0 -170.5 73t-61.5 192q0 122 63 197t170 75q108 0 170 -75t62 -195t-62.5 -193.5t-170.5 -73.5zM282 53q76 0 114.5 56t38.5 149t-39 149.5t-115 56.5t-115.5 -56.5t-39.5 -149.5q0 -91 40 -148t116 -57z" />
<glyph unicode="&#xf4;" horiz-adv-x="560" d="M353 616l-71 66l-76 -66h-75l124 110h57l121 -110h-80zM280 -10q-109 0 -170.5 73t-61.5 192q0 122 63 197t170 75q108 0 170 -75t62 -195t-62.5 -193.5t-170.5 -73.5zM282 53q76 0 114.5 56t38.5 149t-39 149.5t-115 56.5t-115.5 -56.5t-39.5 -149.5q0 -91 40 -148 t116 -57z" />
<glyph unicode="&#xf5;" horiz-adv-x="560" d="M428 668q-36 -27 -82 -27q-28 0 -65 12.5t-58 12.5q-31 0 -68 -27l-16 43q39 35 80 35q25 0 65.5 -13.5t61.5 -13.5q30 0 67 26zM280 -10q-109 0 -170.5 73t-61.5 192q0 122 63 197t170 75q108 0 170 -75t62 -195t-62.5 -193.5t-170.5 -73.5zM282 53q76 0 114.5 56 t38.5 149t-39 149.5t-115 56.5t-115.5 -56.5t-39.5 -149.5q0 -91 40 -148t116 -57z" />
<glyph unicode="&#xf6;" horiz-adv-x="560" d="M159 629v86h85v-86h-85zM318 629v86h84v-86h-84zM280 -10q-109 0 -170.5 73t-61.5 192q0 122 63 197t170 75q108 0 170 -75t62 -195t-62.5 -193.5t-170.5 -73.5zM282 53q76 0 114.5 56t38.5 149t-39 149.5t-115 56.5t-115.5 -56.5t-39.5 -149.5q0 -91 40 -148t116 -57z " />
<glyph unicode="&#xf7;" horiz-adv-x="546" d="M327 585v-102h-107v102h107zM483 395v-62l-420 -1v62zM327 245v-103h-107v103h107z" />
<glyph unicode="&#xf8;" horiz-adv-x="579" d="M558 484l-75 -72q35 -65 35 -155q0 -120 -62 -193.5t-170 -73.5q-104 0 -167 68l-65 -63l-35 36l70 68q-36 67 -36 156q0 122 63 197t171 75q105 0 167 -73l69 67zM131 258q0 -60 16 -102l256 249q-40 59 -116 59q-77 0 -116.5 -56.5t-39.5 -149.5zM440 258q0 59 -14 98 l-254 -247q40 -56 116 -56t114 56.5t38 148.5z" />
<glyph unicode="&#xf9;" horiz-adv-x="580" d="M167 732l241 -96l-14 -42l-248 75zM274 -9q-75 0 -134.5 44.5t-59.5 133.5v350h78v-343q0 -63 39.5 -92.5t90.5 -29.5q57 0 96 33t39 95v337h79l-1 -518h-63l-8 98q-14 -53 -57.5 -81t-98.5 -27z" />
<glyph unicode="&#xfa;" horiz-adv-x="580" d="M401 732l21 -63l-248 -75l-14 42zM274 -9q-75 0 -134.5 44.5t-59.5 133.5v350h78v-343q0 -63 39.5 -92.5t90.5 -29.5q57 0 96 33t39 95v337h79l-1 -518h-63l-8 98q-14 -53 -57.5 -81t-98.5 -27z" />
<glyph unicode="&#xfb;" horiz-adv-x="580" d="M361 616l-71 66l-76 -66h-75l124 110h57l121 -110h-80zM274 -9q-75 0 -134.5 44.5t-59.5 133.5v350h78v-343q0 -63 39.5 -92.5t90.5 -29.5q57 0 96 33t39 95v337h79l-1 -518h-63l-8 98q-14 -53 -57.5 -81t-98.5 -27z" />
<glyph unicode="&#xfc;" horiz-adv-x="580" d="M167 629v86h85v-86h-85zM326 629v86h84v-86h-84zM274 -9q-75 0 -134.5 44.5t-59.5 133.5v350h78v-343q0 -63 39.5 -92.5t90.5 -29.5q57 0 96 33t39 95v337h79l-1 -518h-63l-8 98q-14 -53 -57.5 -81t-98.5 -27z" />
<glyph unicode="&#xfd;" horiz-adv-x="530" d="M383 732l21 -63l-248 -75l-14 42zM125 -165q-26 0 -44.5 2.5t-24.5 5.5l-6 3v51h54q49 -1 71.5 15t33.5 43l20 55l-201 507h79l160 -416l159 416h76l-220 -566q-26 -64 -64.5 -90t-92.5 -26z" />
<glyph unicode="&#xfe;" horiz-adv-x="588" d="M161 723v-279q14 17 22.5 25t30 25t49.5 25t63 8q95 0 155 -67t60 -194q0 -129 -61.5 -202.5t-163.5 -73.5q-81 0 -139 49q-6 6 -9 7t-4.5 -2t-1.5 -11v-194h-78v884h77zM162 113q64 -66 134 -66q74 0 119.5 57t45.5 161q0 102 -45 153t-115 51q-58 0 -98.5 -36.5 t-40.5 -77.5v-242z" />
<glyph unicode="&#xff;" horiz-adv-x="530" d="M150 629v86h85v-86h-85zM309 629v86h84v-86h-84zM125 -165q-26 0 -44.5 2.5t-24.5 5.5l-6 3v51h54q49 -1 71.5 15t33.5 43l20 55l-201 507h79l160 -416l159 416h76l-220 -566q-26 -64 -64.5 -90t-92.5 -26z" />
<glyph unicode="&#x152;" horiz-adv-x="1116" d="M1050 69v-69h-442l-13 103q-68 -113 -220 -113q-147 0 -229 96t-82 273q0 178 83.5 276t231.5 98q150 0 216 -113l16 103h425v-69h-360v-255h269v-68h-269v-262h374zM374 59q107 0 158.5 73.5t51.5 226.5q0 306 -211 306q-216 0 -216 -306q0 -300 217 -300z" />
<glyph unicode="&#x153;" horiz-adv-x="983" d="M293 -10q-111 0 -178 73t-67 192q0 121 68 196.5t178 75.5q65 0 116 -30t81 -83q8 -12 16 0q29 53 79.5 83t113.5 30q109 0 172 -76t63 -209h-397q0 -80 50 -135.5t121 -55.5q102 0 160 89l54 -29q-75 -121 -220 -121q-64 0 -115.5 28.5t-81.5 79.5q-9 14 -18 -3 q-65 -105 -195 -105zM703 469q-71 0 -117.5 -49t-45.5 -126l318 -1q0 73 -43 124.5t-112 51.5zM295 50q76 0 120 55.5t44 152.5q0 96 -45 153t-120 57q-76 0 -121 -56.5t-45 -153.5q0 -96 45 -152t122 -56z" />
<glyph unicode="&#x178;" d="M175 837v86h85v-86h-85zM334 837v86h84v-86h-84zM575 723l-243 -414v-309h-78v309l-245 414h85l200 -343l196 343h85z" />
<glyph unicode="&#x2c6;" horiz-adv-x="310" d="M226 616l-71 66l-76 -66h-75l124 110h57l121 -110h-80z" />
<glyph unicode="&#x2dc;" horiz-adv-x="325" d="M306 668q-36 -27 -82 -27q-28 0 -65 12.5t-58 12.5q-31 0 -68 -27l-16 43q39 35 80 35q25 0 65.5 -13.5t61.5 -13.5q30 0 67 26z" />
<glyph unicode="&#x2000;" horiz-adv-x="493" />
<glyph unicode="&#x2001;" horiz-adv-x="987" />
<glyph unicode="&#x2002;" horiz-adv-x="493" />
<glyph unicode="&#x2003;" horiz-adv-x="987" />
<glyph unicode="&#x2004;" horiz-adv-x="329" />
<glyph unicode="&#x2005;" horiz-adv-x="246" />
<glyph unicode="&#x2006;" horiz-adv-x="164" />
<glyph unicode="&#x2007;" horiz-adv-x="164" />
<glyph unicode="&#x2008;" horiz-adv-x="123" />
<glyph unicode="&#x2009;" horiz-adv-x="197" />
<glyph unicode="&#x200a;" horiz-adv-x="54" />
<glyph unicode="&#x2010;" horiz-adv-x="376" d="M311 291v-64l-248 -1v64z" />
<glyph unicode="&#x2011;" horiz-adv-x="376" d="M311 291v-64l-248 -1v64z" />
<glyph unicode="&#x2012;" horiz-adv-x="376" d="M311 291v-64l-248 -1v64z" />
<glyph unicode="&#x2013;" horiz-adv-x="548" d="M483 284v-64l-420 -1v64z" />
<glyph unicode="&#x2014;" horiz-adv-x="862" d="M797 284v-64l-734 -1v64z" />
<glyph unicode="&#x2018;" horiz-adv-x="233" d="M178 755l-55 -121l41 -1v-102h-107v89l81 135h40z" />
<glyph unicode="&#x2019;" horiz-adv-x="211" d="M50 499l55 121l-41 2v101h107v-88l-81 -136h-40z" />
<glyph unicode="&#x201a;" horiz-adv-x="232" d="M43 -121l54 120l-40 2v102h106v-88l-80 -136h-40z" />
<glyph unicode="&#x201c;" horiz-adv-x="403" d="M59 499v89l81 135h40l-55 -120l40 -2v-102h-106zM229 499v89l80 135h40l-55 -120l41 -2v-102h-106z" />
<glyph unicode="&#x201d;" horiz-adv-x="380" d="M50 499l55 121l-41 2v101h107v-88l-81 -136h-40zM219 499l56 121l-41 2v101h106v-88l-81 -136h-40z" />
<glyph unicode="&#x201e;" horiz-adv-x="405" d="M43 -121l54 120l-40 2v102h106v-88l-80 -136h-40zM216 -121l55 120l-41 2v102h107v-88l-81 -136h-40z" />
<glyph unicode="&#x2022;" horiz-adv-x="307" d="M151 277q-37 0 -63.5 26.5t-26.5 64.5t26.5 64t63.5 26q38 0 64.5 -26.5t26.5 -63.5q0 -38 -27 -64.5t-64 -26.5z" />
<glyph unicode="&#x2026;" horiz-adv-x="733" d="M161 107v-107h-97v107h97zM421 107v-107h-97v107h97zM681 107v-107h-97v107h97z" />
<glyph unicode="&#x202f;" horiz-adv-x="197" />
<glyph unicode="&#x2039;" horiz-adv-x="270" d="M112 251l105 -179h-45l-134 179l134 187h46z" />
<glyph unicode="&#x203a;" horiz-adv-x="269" d="M155 251l-106 187h45l135 -187l-134 -179h-45z" />
<glyph unicode="&#x205f;" horiz-adv-x="246" />
<glyph unicode="&#x20ac;" horiz-adv-x="585" d="M504 108l44 -52q-78 -66 -177 -66q-117 0 -193.5 70.5t-98.5 197.5h-92v52h85q-2 34 -2 52q0 20 2 54h-85v52h92q23 126 98 195.5t190 69.5q103 0 178 -67l-54 -52q-59 50 -118 50q-168 0 -202 -196l205 1v-52l-212 -1q-2 -34 -2 -55q0 -17 2 -51l212 1v-53h-206 q36 -196 211 -196q68 0 123 46z" />
<glyph unicode="&#x2122;" horiz-adv-x="902" d="M6 406v46h337v-46h-140v-406h-48v406h-149zM415 0v452h65l146 -387l147 387h65v-452h-50v371l-138 -371h-49l-136 367v-367h-50z" />
<glyph unicode="&#x25fc;" horiz-adv-x="515" d="M0 515h515v-515h-515v515z" />
</font>
</defs>
</svg>
